<?xml version="1.0" encoding="utf-8"?>
<!-- Generator: Adobe Illustrator 26.0.0, SVG Export Plug-In . SVG Version: 6.00 Build 0)  -->
<svg version="1.1" id="Layer_1" xmlns="http://www.w3.org/2000/svg" xmlns:xlink="http://www.w3.org/1999/xlink" x="0px" y="0px"
	 viewBox="0 0 500 240" style="enable-background:new 0 0 500 240;" xml:space="preserve">
<style type="text/css">
	.st0{fill:#FFFFFF;}
	.st1{clip-path:url(#SVGID_00000168081907522920009250000006973653700436145836_);fill:#FFFFFF;}
	.st2{clip-path:url(#SVGID_00000003823898901596978460000017478391371738762113_);fill:#FFFFFF;}
	.st3{clip-path:url(#SVGID_00000008849320340674263790000003473626351235118239_);fill:#FFFFFF;}
	.st4{clip-path:url(#SVGID_00000150094809754573791810000005647251995171760819_);fill:#FFFFFF;}
	.st5{fill:#12733B;}
	.st6{clip-path:url(#SVGID_00000027588418206205741270000008710375090502962598_);fill:#16A74B;}
	.st7{clip-path:url(#SVGID_00000022535853577200834470000009504806595727254455_);fill:#16A74B;}
	.st8{clip-path:url(#SVGID_00000108291741622940317100000016453912830498582705_);fill:#16A74B;}
	.st9{fill:#16A74B;}
	.st10{clip-path:url(#SVGID_00000162315561074822045410000001865496027794844811_);fill:#16A74B;}
	.st11{clip-path:url(#SVGID_00000069397515992940124410000007390518905208450476_);fill:#16A74B;}
	.st12{clip-path:url(#SVGID_00000048485552229821164030000004933279037476132535_);fill:#16A74B;}
	.st13{clip-path:url(#SVGID_00000114794917972056871530000007229446003731976854_);fill:#16A74B;}
	.st14{clip-path:url(#SVGID_00000124122699226592053520000013232698866771289774_);fill:#16A74B;}
	.st15{fill:#35B34A;}
	.st16{fill:#308B58;}
	.st17{fill:none;stroke:#11A74B;stroke-width:1.4571;stroke-miterlimit:10;}
	.st18{fill:#08743B;}
	.st19{fill:#14A64A;}
	.st20{fill:#30B44A;}
	.st21{fill:#D9D9D8;}
	.st22{clip-path:url(#SVGID_00000080898650453448543130000007194456970715372694_);fill:#FFFFFF;}
	.st23{clip-path:url(#SVGID_00000003826593988184858160000005832427977897728640_);fill:#FFFFFF;}
	.st24{clip-path:url(#SVGID_00000021819033219507842910000004870856108799365536_);fill:#FFFFFF;}
	.st25{clip-path:url(#SVGID_00000170242450988269883070000010238477561171012024_);fill:#FFFFFF;}
</style>
<g>
	<g>
		<g>
			<path class="st5" d="M102.07,152.52c-10.08,0-18.36-2.5-24.81-7.52c-6.46-5.01-11.18-11.87-14.15-20.57
				c-2.98-8.7-4.47-18.77-4.47-30.21c0-10.38,1.9-20.05,5.71-29.01s9.56-16.23,17.25-21.81c7.7-5.57,17.41-8.36,29.15-8.36
				c4.48,0,8.98,0.46,13.49,1.37c4.51,0.91,8.51,2.11,11.99,3.58l-7.34,19.72c-3.13-1.12-6.33-2.04-9.6-2.74
				c-3.27-0.71-6.47-1.06-9.6-1.06c-6.66,0-11.63,2.9-14.9,8.71c-3.28,5.81-5.24,12.78-5.88,20.92c2.24-1.77,5.29-3.57,9.16-5.4
				c3.86-1.83,8.09-2.74,12.69-2.74c10.03,0,18.3,3.01,24.81,9.02c6.51,6.02,9.77,15.42,9.77,28.22c0,11.2-3.87,20.32-11.59,27.33
				C126.01,149.01,115.45,152.52,102.07,152.52z M103.83,133.23c4.48,0,7.75-1.93,9.82-5.8c2.06-3.86,3.1-8.24,3.1-13.13
				c0-6.19-1.26-10.82-3.76-13.89c-2.51-3.06-5.8-4.6-9.86-4.6c-2.83,0-5.57,0.77-8.23,2.3c-2.66,1.54-4.69,2.86-6.11,3.98
				c0.47,11.09,1.98,19.05,4.51,23.88C95.84,130.81,99.35,133.23,103.83,133.23z"/>
			<path class="st5" d="M229.09,152.52h-27.78v-27.51h-46.97v-15.57l30.16-72.1h27.69l-26.98,64.75h16.1V76.62l27.78-4.78v30.25
				h16.45l-4.07,22.91h-12.39V152.52z"/>
			<path class="st5" d="M300.04,152.52c-10.08,0-18.36-2.5-24.81-7.52c-6.46-5.01-11.18-11.87-14.15-20.57
				c-2.98-8.7-4.47-18.77-4.47-30.21c0-10.38,1.9-20.05,5.71-29.01s9.56-16.23,17.25-21.81c7.7-5.57,17.41-8.36,29.15-8.36
				c4.48,0,8.98,0.46,13.49,1.37c4.51,0.91,8.51,2.11,11.99,3.58l-7.34,19.72c-3.13-1.12-6.33-2.04-9.6-2.74
				c-3.27-0.71-6.47-1.06-9.6-1.06c-6.66,0-11.63,2.9-14.9,8.71c-3.28,5.81-5.24,12.78-5.88,20.92c2.24-1.77,5.29-3.57,9.16-5.4
				c3.86-1.83,8.09-2.74,12.69-2.74c10.03,0,18.3,3.01,24.81,9.02c6.51,6.02,9.77,15.42,9.77,28.22c0,11.2-3.87,20.32-11.59,27.33
				C323.98,149.01,313.42,152.52,300.04,152.52z M301.8,133.23c4.48,0,7.75-1.93,9.82-5.8c2.06-3.86,3.1-8.24,3.1-13.13
				c0-6.19-1.26-10.82-3.76-13.89c-2.51-3.06-5.8-4.6-9.86-4.6c-2.83,0-5.57,0.77-8.23,2.3c-2.66,1.54-4.69,2.86-6.11,3.98
				c0.47,11.09,1.98,19.05,4.51,23.88C293.81,130.81,297.32,133.23,301.8,133.23z"/>
			<path class="st5" d="M427.06,152.52h-27.78v-27.51h-46.97v-15.57l30.16-72.1h27.69l-26.98,64.75h16.1V76.62l27.78-4.78v30.25
				h16.45l-4.07,22.91h-12.39V152.52z"/>
		</g>
	</g>
	<g>
		<g>
			<path class="st5" d="M78.55,186.2c0.22,0.12,0.48,0.21,0.78,0.29c0.49,0.13,0.99,0.2,1.48,0.2l2.52-0.02l0.1,6.18h-2.69
				c-0.13-0.04-0.32-0.08-0.57-0.12c-0.49-0.07-1.08-0.28-1.75-0.64c-0.18-0.09-0.15-0.04,0.1,0.16c-0.07,1.18-0.4,2.53-1,4.04
				c-0.7,1.73-1.86,3.12-3.49,4.17c-1.62,1.05-3.81,1.58-6.57,1.58c-2.8,0-4.99-0.52-6.59-1.58c-1.6-1.05-2.73-2.43-3.39-4.15
				c-0.66-1.71-1-3.54-1-5.48v-5.81h6.04v5.46c0,2.21,0.39,3.71,1.17,4.51c0.78,0.8,2.17,1.2,4.19,1.2c1.34,0,2.31-0.2,2.93-0.6
				c0.62-0.4,1.03-1.03,1.24-1.88c0.21-0.85,0.31-1.93,0.31-3.23v-26.2l6.18-1.19V186.2z"/>
			<path class="st5" d="M99.01,192.85c-1.72,0-2.81-0.02-3.3-0.08c-1.17-0.29-2.25-0.89-3.26-1.81c-0.4-0.35-0.67-0.64-0.82-0.86
				c-1.44,1.81-3.43,2.73-5.98,2.75h-3.71v-6.16h2.57c0.74,0,1.42-0.15,2.03-0.45c0.9-0.47,1.43-1.22,1.62-2.24
				c0.13-0.77,0.2-1.53,0.2-2.28c0-3.01-0.17-5.53-0.51-7.54h6.41c0.31,1.75,0.47,3.58,0.47,5.47c0,2.63-0.29,4.76-0.88,6.42
				c0.69,0.41,1.53,0.62,2.52,0.62h2.55L99.01,192.85z M86.5,200.67c-0.81,0-1.5-0.29-2.07-0.86c-0.57-0.58-0.86-1.27-0.86-2.08
				c0-0.82,0.28-1.51,0.86-2.09c0.57-0.57,1.26-0.86,2.07-0.86c0.82,0,1.51,0.29,2.09,0.86c0.57,0.57,0.86,1.27,0.86,2.09
				c0,0.81-0.29,1.5-0.86,2.08C88.01,200.38,87.32,200.67,86.5,200.67z M93.29,200.67c-0.83,0-1.53-0.29-2.1-0.86
				s-0.85-1.27-0.85-2.08c0-0.82,0.28-1.51,0.85-2.09c0.57-0.57,1.26-0.86,2.1-0.86c0.79,0,1.47,0.29,2.05,0.86
				c0.57,0.57,0.86,1.27,0.86,2.09c0,0.81-0.29,1.5-0.86,2.08C94.76,200.38,94.08,200.67,93.29,200.67z"/>
			<path class="st5" d="M101.59,186.69c-0.02-1.65-0.14-4.1-0.35-7.35h6.12v1.33c0.05-0.25,0.96-1.33,2.72-3.26
				c1.76-1.92,3.69-3.28,5.78-4.07c2.09-0.79,4.09-1.19,6-1.19c4.59,0,7.94,1.84,10.04,5.52c1.01,1.83,1.52,4.1,1.52,6.8v3.16
				c0,1.05-0.31,2.11-0.94,3.16c-0.76,1.26-2.04,1.95-3.84,2.07h-30.7v-6.16H101.59z M127.26,186.69v-2.65
				c-0.08-1.79-0.57-3.21-1.49-4.25c-0.91-1.04-2.3-1.56-4.16-1.56c-1.7,0-3.38,0.49-5.02,1.47c-1.64,0.98-3,2.13-4.07,3.45
				c-1.07,1.32-1.6,2.55-1.6,3.71l-0.2-0.17H127.26z"/>
			<path class="st5" d="M154.96,186.24c0.18,0.09,0.41,0.17,0.7,0.25c0.49,0.13,0.99,0.2,1.48,0.2l2.52-0.02l0.1,6.18h-2.69
				c-0.13-0.04-0.32-0.08-0.57-0.12c-0.49-0.07-1.08-0.28-1.75-0.64c-0.18-0.09-0.14-0.03,0.12,0.17l-0.06,2.48
				c0,2.67-1.14,4.6-3.4,5.77c-2.27,1.17-4.47,1.76-6.62,1.76c-2.89,0-4.95-0.53-6.2-1.58l0.47-4.13c1.42,0.23,3.2,0.35,5.34,0.35
				c0.48,0,0.97-0.03,1.48-0.08c0.51-0.05,1.12-0.32,1.83-0.8c0.71-0.48,1.13-0.99,1.25-1.52c0.05-0.3,0.08-1.12,0.1-2.46
				c-0.51,0.51-1.92,0.76-4.23,0.76c-2.76,0-4.73-0.96-5.92-2.87c-1.19-1.92-1.78-4.01-1.78-6.27c0-3.14,0.89-5.76,2.68-7.85
				c1.79-2.09,4.23-3.14,7.34-3.14c1.45,0,2.97,0.14,4.53,0.44c1.57,0.29,2.74,0.57,3.52,0.83L154.96,186.24z M145.85,187
				c0.9,0,1.55-0.22,1.95-0.67c0.4-0.45,0.67-1.09,0.79-1.92c0.12-0.83,0.2-1.79,0.22-2.86l0.12-3.18
				c-0.04-0.03-0.21-0.08-0.51-0.15s-0.6-0.11-0.9-0.11c-0.98,0-1.73,0.22-2.26,0.64c-0.53,0.43-0.91,0.99-1.13,1.68
				c-0.22,0.69-0.33,1.41-0.33,2.16c0,1.29,0.14,2.33,0.43,3.14c0.29,0.81,0.78,1.23,1.48,1.27H145.85z"/>
			<path class="st5" d="M175.89,192.85c-1.72,0-2.81-0.02-3.3-0.08c-1.17-0.29-2.25-0.89-3.26-1.81c-0.4-0.35-0.67-0.64-0.82-0.86
				c-1.44,1.81-3.43,2.73-5.98,2.75h-3.71v-6.16h2.57c0.74,0,1.42-0.15,2.03-0.45c0.9-0.47,1.43-1.22,1.62-2.24
				c0.13-0.77,0.2-1.53,0.2-2.28c0-3.01-0.17-5.53-0.51-7.54h6.41c0.31,1.75,0.47,3.58,0.47,5.47c0,2.63-0.29,4.76-0.88,6.42
				c0.69,0.41,1.53,0.62,2.52,0.62h2.55L175.89,192.85z M164.29,171.14c-0.81,0-1.49-0.29-2.05-0.88c-0.57-0.59-0.85-1.27-0.85-2.07
				c0-0.83,0.28-1.53,0.85-2.09c0.57-0.57,1.25-0.85,2.05-0.85c0.82,0,1.52,0.28,2.09,0.85c0.57,0.56,0.86,1.26,0.86,2.09
				c0,0.79-0.28,1.48-0.86,2.07C165.81,170.85,165.11,171.14,164.29,171.14z M171.08,171.14c-0.83,0-1.53-0.29-2.1-0.88
				c-0.56-0.59-0.85-1.27-0.85-2.07c0-0.83,0.28-1.53,0.85-2.09c0.57-0.57,1.26-0.85,2.1-0.85c0.79,0,1.47,0.28,2.05,0.85
				c0.57,0.56,0.86,1.26,0.86,2.09c0,0.79-0.29,1.48-0.86,2.07C172.55,170.85,171.87,171.14,171.08,171.14z"/>
			<path class="st5" d="M185.19,186.3c0.12,0.05,0.3,0.12,0.55,0.19c0.49,0.13,0.98,0.2,1.46,0.2l2.53-0.02l0.1,6.18h-2.69
				c-0.13-0.04-0.32-0.08-0.57-0.12c-0.5-0.07-1.09-0.28-1.78-0.64c-0.39-0.23-0.68-0.43-0.88-0.6c-0.77,0.91-2.18,1.36-4.23,1.36
				h-4.72v-6.16h2.86c0.72,0,1.1-0.27,1.17-0.8v-22.8l6.18,1.19V186.3z"/>
			<path class="st5" d="M192.94,192.85h-4.72v-6.16h2.86c0.72,0,1.1-0.27,1.17-0.8v-22.8l6.18,1.19v24.21
				C198.14,191.4,196.31,192.85,192.94,192.85z"/>
			<path class="st5" d="M218.42,192.13v0.26c0,3.08-0.74,5.37-2.21,6.88c-1.47,1.51-3.69,2.5-6.64,2.99l-1.44-3.74
				c1.3-0.7,2.23-1.36,2.78-1.98c0.55-0.62,0.92-1.26,1.09-1.92c0.17-0.66,0.26-1.37,0.26-2.13v-18.4h6.16v12.03
				c0.3,0.17,0.63,0.3,0.99,0.41c0.49,0.13,0.99,0.2,1.48,0.2l2.52-0.02l0.1,6.18h-2.69c-0.13-0.04-0.32-0.08-0.57-0.12
				c-0.49-0.07-1.08-0.28-1.75-0.64C218.26,191.97,218.24,191.99,218.42,192.13z"/>
			<path class="st5" d="M222.1,186.69h3.64c-0.02-1.65-0.14-4.1-0.35-7.35h6.12v1.33c0.05-0.25,0.96-1.33,2.72-3.26
				c1.76-1.92,3.69-3.28,5.78-4.07c2.09-0.79,4.09-1.19,6-1.19c4.59,0,7.94,1.84,10.04,5.52c1.01,1.83,1.52,4.1,1.52,6.8v2.11
				c0.27,0.08,0.66,0.12,1.17,0.12h2.54l0.1,6.16c-1.69,0-2.78-0.03-3.26-0.1c-0.49-0.07-1.07-0.29-1.74-0.66
				c-0.29-0.14-0.47-0.24-0.55-0.31c-0.6,0.62-1.6,0.98-3.02,1.07h-30.7V186.69z M251.42,186.69v-2.65
				c-0.08-1.78-0.57-3.19-1.49-4.24c-0.91-1.05-2.3-1.57-4.14-1.57c-1.71,0-3.39,0.49-5.03,1.47c-1.64,0.98-3,2.14-4.07,3.46
				c-1.08,1.33-1.62,2.56-1.62,3.71l-0.2-0.17H251.42z"/>
			<path class="st5" d="M277.25,192.85c-1.72,0-2.81-0.02-3.3-0.08c-1.17-0.29-2.25-0.89-3.26-1.81c-0.4-0.35-0.67-0.64-0.82-0.86
				c-1.44,1.81-3.43,2.73-5.98,2.75h-3.71v-6.16h2.57c0.74,0,1.42-0.15,2.03-0.45c0.9-0.47,1.43-1.22,1.62-2.24
				c0.13-0.77,0.2-1.53,0.2-2.28c0-3.01-0.17-5.53-0.51-7.54h6.41c0.31,1.75,0.47,3.58,0.47,5.47c0,2.63-0.29,4.76-0.88,6.42
				c0.69,0.41,1.53,0.62,2.52,0.62h2.55L277.25,192.85z M265.65,171.14c-0.81,0-1.49-0.29-2.05-0.88s-0.85-1.27-0.85-2.07
				c0-0.83,0.28-1.53,0.85-2.09c0.57-0.57,1.25-0.85,2.05-0.85c0.82,0,1.52,0.28,2.09,0.85c0.57,0.56,0.86,1.26,0.86,2.09
				c0,0.79-0.28,1.48-0.86,2.07C267.16,170.85,266.47,171.14,265.65,171.14z M272.43,171.14c-0.83,0-1.53-0.29-2.1-0.88
				c-0.56-0.59-0.85-1.27-0.85-2.07c0-0.83,0.28-1.53,0.85-2.09c0.57-0.57,1.26-0.85,2.1-0.85c0.79,0,1.47,0.28,2.05,0.85
				c0.57,0.56,0.86,1.26,0.86,2.09c0,0.79-0.29,1.48-0.86,2.07C273.91,170.85,273.22,171.14,272.43,171.14z"/>
			<path class="st5" d="M300.5,186.32c0.08,0.04,0.26,0.1,0.54,0.17c0.5,0.13,0.99,0.2,1.48,0.2l2.53-0.02l0.08,6.18h-2.67
				c-0.13-0.04-0.32-0.08-0.57-0.12c-0.5-0.07-1.08-0.28-1.76-0.65c-0.68-0.37-1.36-0.95-2.04-1.73c-0.12-0.09-0.11-0.05,0.02,0.14
				l-0.47,0.84c-0.57,0.99-1.46,1.5-2.67,1.52h-19.45v-6.16h17.58c1.38-2.39,2.07-3.63,2.07-3.73c0-0.1-0.08-0.21-0.23-0.31
				c-0.96-0.61-2.07-1.26-3.33-1.95c-1.96-0.87-3.89-1.31-5.79-1.31c-1.51,0-2.92,0.5-4.25,1.48l-2.97-4.54
				c1.83-1.61,3.77-2.78,5.81-3.49c0.81-0.31,1.66-0.47,2.57-0.47c0.95,0,2.14,0.27,3.57,0.8c1.61,0.61,5.37,2.45,11.29,5.52
				c0.52,0.65,0.78,1.46,0.78,2.42c0,0.53-0.07,1.16-0.22,1.87L300.5,186.32z M287.15,170.34c-0.81,0-1.49-0.29-2.06-0.88
				c-0.57-0.59-0.85-1.28-0.85-2.07c0-0.83,0.28-1.53,0.85-2.1c0.57-0.56,1.25-0.85,2.06-0.85c0.82,0,1.51,0.28,2.09,0.85
				c0.57,0.57,0.86,1.26,0.86,2.1c0,0.79-0.28,1.48-0.85,2.07C288.68,170.05,287.98,170.34,287.15,170.34z"/>
			<path class="st5" d="M325.49,186.4c0.03,0.01,0.14,0.05,0.33,0.1c0.49,0.13,0.99,0.2,1.48,0.2l2.54-0.02l0.08,6.18h-2.67
				c-0.13-0.04-0.33-0.08-0.59-0.12c-0.48-0.07-1.07-0.28-1.75-0.64c-0.62-0.34-1.16-0.74-1.6-1.23c-1.03,1.28-2.73,1.95-5.11,2.03
				h-0.49c-0.91,0-1.87-0.12-2.88-0.37c-1.86-0.47-3.24-1.16-4.15-2.07c0.17-0.16,0.24-0.21,0.22-0.17
				c-0.76,0.83-1.47,1.43-2.15,1.8c-0.67,0.37-1.21,0.58-1.6,0.63l-0.04,0.04c-0.36,0.04-0.6,0.07-0.72,0.1h-2.65l0.1-6.18
				l2.52,0.02c0.49,0,0.99-0.07,1.48-0.2c0.23-0.08,0.38-0.13,0.43-0.16c-0.13-0.51-0.21-1.2-0.24-2.09l-0.17-4.37v-5.99
				c0.7-0.26,1.84-0.53,3.4-0.83c1.56-0.29,3.07-0.44,4.53-0.44c3.11,0,5.55,1.04,7.33,3.13c1.79,2.09,2.68,4.71,2.68,7.87
				C325.8,184.71,325.7,185.63,325.49,186.4z M317.22,186.96c0.69-0.04,1.17-0.46,1.46-1.27c0.28-0.81,0.43-1.85,0.43-3.14
				c0-0.76-0.11-1.48-0.33-2.16c-0.22-0.69-0.6-1.25-1.13-1.68c-0.53-0.43-1.29-0.64-2.26-0.64c-0.29,0-0.58,0.03-0.89,0.11
				c-0.31,0.07-0.48,0.12-0.52,0.15l0.12,3.18c0.03,1.08,0.1,2.04,0.22,2.86c0.12,0.83,0.39,1.47,0.79,1.92
				c0.4,0.45,1.05,0.67,1.95,0.67H317.22z"/>
			<path class="st5" d="M333.11,192.85h-4.72v-6.16h2.86c0.72,0,1.1-0.27,1.17-0.8v-22.8l6.18,1.19v24.21
				C338.31,191.4,336.47,192.85,333.11,192.85z"/>
			<path class="st5" d="M348.68,192.85h-6.18v-28.57l6.18-1.19V192.85z"/>
			<path class="st5" d="M381.88,185.97c0.39,0.24,0.79,0.41,1.21,0.53c0.5,0.13,0.99,0.2,1.48,0.2l2.52-0.02l0.1,6.18h-2.69
				c-0.13-0.04-0.32-0.08-0.57-0.12c-0.49-0.07-1.08-0.28-1.76-0.65c-0.68-0.37-1.36-0.95-2.05-1.74c-0.14-0.14-0.16-0.14-0.06,0
				c-1,1.62-2.85,2.47-5.56,2.55H374c-0.91,0-1.87-0.12-2.88-0.37c-1.69-0.44-2.97-1.06-3.86-1.85c-0.02,0-0.09,0.08-0.24,0.24
				c-0.6,0.61-0.99,1.24-1.18,1.9c-0.19,0.66-0.28,1.36-0.28,2.13v10.02h-6.64v-9.94c0-2.05,0.34-3.76,1.02-5.11
				c0.68-1.36,1.62-2.51,2.81-3.46c0.57-0.43,1.12-0.81,1.66-1.13c-0.04-0.24-0.07-0.59-0.1-1.05l-0.16-4.37v-5.99
				c0.69-0.26,1.82-0.53,3.38-0.83c1.56-0.29,3.08-0.44,4.55-0.44c3.09,0,5.53,1.04,7.32,3.13c1.79,2.09,2.68,4.71,2.68,7.87
				C382.09,184.54,382.02,185.32,381.88,185.97z M373.52,186.96c0.7-0.04,1.19-0.46,1.47-1.27c0.28-0.81,0.42-1.85,0.42-3.14
				c0-0.76-0.11-1.48-0.33-2.16c-0.22-0.69-0.6-1.25-1.13-1.68c-0.53-0.43-1.29-0.64-2.26-0.64c-0.29,0-0.58,0.03-0.89,0.11
				c-0.31,0.07-0.47,0.12-0.5,0.15l0.1,3.18c0.03,1.08,0.1,2.04,0.23,2.86c0.13,0.83,0.4,1.47,0.79,1.92
				c0.4,0.45,1.04,0.67,1.94,0.67H373.52z"/>
			<path class="st5" d="M397.2,192.89c-0.77-0.02-4.53-0.04-11.29-0.04v-6.12h4.54c-0.44-0.88-0.66-2.15-0.66-3.8
				c0-0.44,0.02-0.93,0.08-1.46c0-2.38,0.76-4.46,2.28-6.24c1.52-1.78,4.1-2.67,7.74-2.67c1.14,0,3.35,0.4,6.63,1.19
				c0.12,1.92,0.17,3.62,0.17,5.11c0,5.67-0.8,9.27-2.4,10.8c-0.35,0.48-0.74,0.91-1.19,1.31
				C401.73,192.24,399.76,192.89,397.2,192.89z M395.52,170.73c-0.79,0-1.48-0.29-2.05-0.87c-0.57-0.58-0.86-1.27-0.86-2.07
				c0-0.82,0.28-1.52,0.86-2.09c0.57-0.57,1.25-0.86,2.05-0.86c0.83,0,1.53,0.29,2.09,0.86c0.57,0.57,0.85,1.26,0.85,2.09
				c0,0.8-0.28,1.5-0.85,2.07C397.05,170.44,396.35,170.73,395.52,170.73z M397.65,186.55c0.9,0,1.55-0.22,1.95-0.67
				c0.4-0.45,0.67-1.09,0.81-1.92c0.14-0.83,0.22-1.78,0.24-2.85l0.12-3.2c-0.04-0.01-0.21-0.05-0.52-0.13
				c-0.31-0.07-0.6-0.1-0.89-0.1c-1,0-1.76,0.22-2.28,0.65c-0.52,0.43-0.89,0.99-1.11,1.67c-0.22,0.67-0.33,1.41-0.33,2.2
				c0,1.38,0.15,2.44,0.44,3.2C396.37,186.16,396.9,186.54,397.65,186.55z M402.33,170.73c-0.83,0-1.53-0.29-2.1-0.87
				c-0.57-0.58-0.85-1.27-0.85-2.07c0-0.82,0.28-1.52,0.85-2.09c0.57-0.57,1.26-0.86,2.1-0.86c0.79,0,1.47,0.29,2.05,0.86
				c0.57,0.57,0.86,1.26,0.86,2.09c0,0.8-0.29,1.5-0.86,2.07C403.8,170.44,403.12,170.73,402.33,170.73z"/>
			<path class="st5" d="M418.43,192.13v0.26c0,3.08-0.74,5.37-2.21,6.88c-1.47,1.51-3.69,2.5-6.64,2.99l-1.44-3.74
				c1.3-0.7,2.23-1.36,2.78-1.98c0.55-0.62,0.92-1.26,1.09-1.92c0.17-0.66,0.26-1.37,0.26-2.13v-18.4h6.16v12.03
				c0.3,0.17,0.63,0.3,0.99,0.41c0.49,0.13,0.99,0.2,1.48,0.2l2.52-0.02l0.1,6.18h-2.69c-0.13-0.04-0.32-0.08-0.57-0.12
				c-0.49-0.07-1.08-0.28-1.75-0.64C418.27,191.97,418.24,191.99,418.43,192.13z"/>
			<path class="st5" d="M426.86,192.85h-4.72v-6.16h2.86c0.72,0,1.1-0.27,1.17-0.8v-22.8l6.18,1.19v24.21
				C432.06,191.4,430.23,192.85,426.86,192.85z"/>
			<path class="st5" d="M442.44,192.85h-6.18v-28.57l6.18-1.19V192.85z"/>
		</g>
	</g>
</g>
</svg>
