<?xml version="1.0" encoding="utf-8"?>
<!-- Generator: Adobe Illustrator 26.0.0, SVG Export Plug-In . SVG Version: 6.00 Build 0)  -->
<svg version="1.1" id="Layer_1" xmlns="http://www.w3.org/2000/svg" xmlns:xlink="http://www.w3.org/1999/xlink" x="0px" y="0px"
	 viewBox="0 0 1310 295" style="enable-background:new 0 0 1310 295;" xml:space="preserve">
<style type="text/css">
	.st0{fill:#FFFFFF;}
	.st1{clip-path:url(#SVGID_00000149350407813088405830000004489438295056139659_);fill:#FFFFFF;}
	.st2{clip-path:url(#SVGID_00000022539589558537798870000016630839201958242464_);fill:#FFFFFF;}
	.st3{clip-path:url(#SVGID_00000052786353976051518890000005937468329944411815_);fill:#FFFFFF;}
	.st4{clip-path:url(#SVGID_00000134222936717645399770000005246098213774228157_);fill:#FFFFFF;}
	.st5{fill:#12733B;}
	.st6{clip-path:url(#SVGID_00000034079901450634776890000005684282173405879466_);fill:#16A74B;}
	.st7{clip-path:url(#SVGID_00000178197036948776567700000007752046111545281668_);fill:#16A74B;}
	.st8{clip-path:url(#SVGID_00000067936598396900584880000013292983563236277431_);fill:#16A74B;}
	.st9{fill:#16A74B;}
	.st10{clip-path:url(#SVGID_00000132788193442913996520000016598341847261650321_);fill:#16A74B;}
	.st11{clip-path:url(#SVGID_00000044879028754796134220000002434320829942592677_);fill:#16A74B;}
	.st12{clip-path:url(#SVGID_00000039132434157617926000000015843589731826527909_);fill:#16A74B;}
	.st13{clip-path:url(#SVGID_00000099634164172120086310000016170696814080273283_);fill:#16A74B;}
	.st14{clip-path:url(#SVGID_00000162313249112621143650000010975198680348026245_);fill:#16A74B;}
	.st15{fill:#35B34A;}
	.st16{fill:#308B58;}
	.st17{fill:none;stroke:#11A74B;stroke-width:1.4571;stroke-miterlimit:10;}
	.st18{fill:#08743B;}
	.st19{fill:#14A64A;}
	.st20{fill:#30B44A;}
	.st21{fill:#D9D9D8;}
	.st22{clip-path:url(#SVGID_00000159444046693141096500000001193876158850400936_);fill:#FFFFFF;}
	.st23{clip-path:url(#SVGID_00000076582622301965004290000010519217585746907574_);fill:#FFFFFF;}
	.st24{clip-path:url(#SVGID_00000182527856978945679440000014787439523748858291_);fill:#FFFFFF;}
	.st25{clip-path:url(#SVGID_00000119833754187443808540000002809915904832665231_);fill:#FFFFFF;}
</style>
<g>
	<path class="st9" d="M274.7,274.27h126.77v-63.38V147.5H274.7v63.38V274.27z M306.39,179.19c8.75,0,16.67,3.55,22.41,9.28
		c0-8.11,3.09-16.22,9.28-22.41c6.19,6.19,9.28,14.3,9.28,22.41c5.73-5.74,13.66-9.28,22.41-9.28c0,8.75-3.55,16.67-9.28,22.41
		c8.11,0,16.22,3.09,22.41,9.28c-6.19,6.19-14.3,9.28-22.41,9.28c5.74,5.74,9.28,13.66,9.28,22.41c-8.75,0-16.67-3.55-22.41-9.28
		c0,8.11-3.09,16.22-9.28,22.41c-6.19-6.19-9.28-14.3-9.28-22.41c-5.74,5.74-13.66,9.28-22.41,9.28c0-8.75,3.55-16.67,9.28-22.41
		c-8.11,0-16.22-3.09-22.41-9.28c6.19-6.19,14.3-9.28,22.41-9.28C309.94,195.87,306.39,187.94,306.39,179.19z"/>
	<path class="st0" d="M338.08,210.88c-6.19-6.19-9.28-14.3-9.28-22.41c-5.74-5.74-13.66-9.28-22.41-9.28
		c0,8.75,3.55,16.67,9.28,22.41C323.78,201.6,331.89,204.7,338.08,210.88z"/>
	<path class="st0" d="M338.08,210.88c6.19-6.19,14.3-9.28,22.41-9.28c5.74-5.74,9.28-13.66,9.28-22.41
		c-8.75,0-16.67,3.55-22.41,9.28C347.36,196.58,344.27,204.7,338.08,210.88z"/>
	<path class="st0" d="M338.08,210.88c-6.19,6.19-14.3,9.28-22.41,9.28c-5.74,5.74-9.28,13.66-9.28,22.41
		c8.75,0,16.67-3.55,22.41-9.28C328.8,225.18,331.89,217.07,338.08,210.88z"/>
	<path class="st0" d="M347.36,233.29c5.73,5.74,13.66,9.28,22.41,9.28c0-8.75-3.55-16.67-9.28-22.41c-8.11,0-16.22-3.09-22.41-9.28
		C344.27,217.07,347.36,225.18,347.36,233.29z"/>
	<path class="st15" d="M315.67,220.17c8.11,0,16.22-3.09,22.41-9.28c-6.19-6.19-14.3-9.28-22.41-9.28c-8.11,0-16.22,3.09-22.41,9.28
		C299.45,217.07,307.56,220.17,315.67,220.17z"/>
	<path class="st15" d="M347.36,188.47c0-8.11-3.09-16.22-9.28-22.41c-6.19,6.19-9.28,14.3-9.28,22.41c0,8.11,3.09,16.22,9.28,22.41
		C344.27,204.7,347.36,196.58,347.36,188.47z"/>
	<path class="st15" d="M338.08,210.88c-6.19,6.19-9.28,14.3-9.28,22.41c0,8.11,3.09,16.22,9.28,22.41
		c6.19-6.19,9.28-14.3,9.28-22.41C347.36,225.18,344.27,217.07,338.08,210.88z"/>
	<path class="st15" d="M338.08,210.88c6.19,6.19,14.3,9.28,22.41,9.28c8.11,0,16.22-3.09,22.41-9.28
		c-6.19-6.19-14.3-9.28-22.41-9.28C352.38,201.6,344.27,204.7,338.08,210.88z"/>
	<path class="st0" d="M211.31,274.27c-35.01,0-63.38-28.38-63.38-63.38l0,0v63.38H211.31z"/>
	<path class="st0" d="M211.31,210.88c0-35.01,28.38-63.38,63.38-63.38h-63.38h-63.38C182.94,147.5,211.31,175.88,211.31,210.88z"/>
	<path class="st0" d="M211.31,274.27c0-35.01,28.38-63.38,63.38-63.38V147.5c0,35.01-28.38,63.38-63.38,63.38
		c-35.01,0-63.38-28.38-63.38-63.38l0,0v63.38C182.94,210.88,211.31,239.26,211.31,274.27z"/>
	<path class="st0" d="M211.31,274.27h63.38v-63.38C274.7,245.89,246.32,274.27,211.31,274.27z"/>
	<path class="st9" d="M211.31,274.27l-63.38-63.38C147.93,245.89,176.31,274.27,211.31,274.27z"/>
	<path class="st5" d="M147.93,210.88l63.38,63.38C211.31,239.26,182.94,210.88,147.93,210.88z"/>
	<path class="st9" d="M274.7,210.88l-63.38,63.38C246.32,274.27,274.7,245.89,274.7,210.88z"/>
	<path class="st5" d="M211.31,274.27l63.38-63.38C239.69,210.88,211.31,239.26,211.31,274.27z"/>
	<path class="st9" d="M211.31,210.88l-63.38-63.38C147.93,182.51,176.31,210.88,211.31,210.88z"/>
	<path class="st16" d="M147.93,147.5l63.38,63.38C211.31,175.88,182.94,147.5,147.93,147.5z"/>
	<path class="st9" d="M274.7,147.5l-63.38,63.38C246.32,210.88,274.7,182.51,274.7,147.5z"/>
	<path class="st16" d="M211.31,210.88l63.38-63.38C239.69,147.5,211.31,175.88,211.31,210.88z"/>
	<path class="st0" d="M21.16,147.5v63.38h63.38C49.54,210.88,21.16,182.51,21.16,147.5z"/>
	<path class="st0" d="M147.93,274.27v-63.38c0,35.01-28.38,63.38-63.38,63.38h31.69H147.93z"/>
	<path class="st0" d="M84.55,210.88h63.38V147.5C147.93,182.51,119.55,210.88,84.55,210.88z"/>
	<path class="st5" d="M84.55,210.88L84.55,210.88c35.01,0,63.38-28.38,63.38-63.38l0,0H84.55h0H21.16l0,0
		C21.16,182.51,49.54,210.88,84.55,210.88z"/>
	<path class="st9" d="M84.55,274.27L84.55,274.27L84.55,274.27c35.01,0,63.38-28.38,63.38-63.38l0,0H84.55h0H21.16l0,0
		C21.16,245.89,49.54,274.27,84.55,274.27z"/>
	<path class="st0" d="M464.85,274.27c-35.01,0-63.38-28.38-63.38-63.38v63.38H464.85z"/>
	<path class="st0" d="M528.23,210.88V147.5h-63.38C499.85,147.5,528.23,175.88,528.23,210.88z"/>
	<path class="st0" d="M464.85,274.27h63.38v-63.38C528.23,245.89,499.85,274.27,464.85,274.27z"/>
	<path class="st0" d="M464.85,147.5h-63.38v63.38C401.47,175.88,429.84,147.5,464.85,147.5z"/>
	<path class="st16" d="M464.85,147.5c-35.01,0-63.38,28.38-63.38,63.38c0,35.01,28.38,63.38,63.38,63.38
		c35.01,0,63.38-28.38,63.38-63.38C528.23,175.88,499.85,147.5,464.85,147.5z M464.85,242.58c-17.5,0-31.69-14.19-31.69-31.69
		s14.19-31.69,31.69-31.69c17.5,0,31.69,14.19,31.69,31.69S482.35,242.58,464.85,242.58z"/>
	
		<ellipse transform="matrix(0.7071 -0.7071 0.7071 0.7071 -12.966 390.4644)" class="st5" cx="464.85" cy="210.88" rx="31.69" ry="31.69"/>
	<path class="st0" d="M528.23,210.88v63.38H655V147.5H528.23V210.88z M642.32,152.25c4.38,0,7.92,3.55,7.92,7.92
		c0,4.38-3.55,7.92-7.92,7.92s-7.92-3.55-7.92-7.92C634.4,155.8,637.95,152.25,642.32,152.25z M642.32,177.61
		c4.38,0,7.92,3.55,7.92,7.92c0,4.38-3.55,7.92-7.92,7.92s-7.92-3.55-7.92-7.92C634.4,181.15,637.95,177.61,642.32,177.61z
		 M642.32,202.96c4.38,0,7.92,3.55,7.92,7.92c0,4.38-3.55,7.92-7.92,7.92s-7.92-3.55-7.92-7.92
		C634.4,206.51,637.95,202.96,642.32,202.96z M642.32,228.31c4.38,0,7.92,3.55,7.92,7.92c0,4.38-3.55,7.92-7.92,7.92
		s-7.92-3.55-7.92-7.92C634.4,231.86,637.95,228.31,642.32,228.31z M642.32,253.67c4.38,0,7.92,3.55,7.92,7.92
		c0,4.38-3.55,7.92-7.92,7.92s-7.92-3.55-7.92-7.92C634.4,257.21,637.95,253.67,642.32,253.67z M616.97,152.25
		c4.38,0,7.92,3.55,7.92,7.92c0,4.38-3.55,7.92-7.92,7.92s-7.92-3.55-7.92-7.92C609.05,155.8,612.59,152.25,616.97,152.25z
		 M616.97,177.61c4.38,0,7.92,3.55,7.92,7.92c0,4.38-3.55,7.92-7.92,7.92s-7.92-3.55-7.92-7.92
		C609.05,181.15,612.59,177.61,616.97,177.61z M616.97,202.96c4.38,0,7.92,3.55,7.92,7.92c0,4.38-3.55,7.92-7.92,7.92
		s-7.92-3.55-7.92-7.92C609.05,206.51,612.59,202.96,616.97,202.96z M616.97,228.31c4.38,0,7.92,3.55,7.92,7.92
		c0,4.38-3.55,7.92-7.92,7.92s-7.92-3.55-7.92-7.92C609.05,231.86,612.59,228.31,616.97,228.31z M616.97,253.67
		c4.38,0,7.92,3.55,7.92,7.92c0,4.38-3.55,7.92-7.92,7.92s-7.92-3.55-7.92-7.92C609.05,257.21,612.59,253.67,616.97,253.67z
		 M591.62,152.25c4.38,0,7.92,3.55,7.92,7.92c0,4.38-3.55,7.92-7.92,7.92s-7.92-3.55-7.92-7.92
		C583.69,155.8,587.24,152.25,591.62,152.25z M591.62,177.61c4.38,0,7.92,3.55,7.92,7.92c0,4.38-3.55,7.92-7.92,7.92
		s-7.92-3.55-7.92-7.92C583.69,181.15,587.24,177.61,591.62,177.61z M591.62,202.96c4.38,0,7.92,3.55,7.92,7.92
		c0,4.38-3.55,7.92-7.92,7.92s-7.92-3.55-7.92-7.92C583.69,206.51,587.24,202.96,591.62,202.96z M591.62,228.31
		c4.38,0,7.92,3.55,7.92,7.92c0,4.38-3.55,7.92-7.92,7.92s-7.92-3.55-7.92-7.92C583.69,231.86,587.24,228.31,591.62,228.31z
		 M591.62,253.67c4.38,0,7.92,3.55,7.92,7.92c0,4.38-3.55,7.92-7.92,7.92s-7.92-3.55-7.92-7.92
		C583.69,257.21,587.24,253.67,591.62,253.67z M566.26,152.25c4.38,0,7.92,3.55,7.92,7.92c0,4.38-3.55,7.92-7.92,7.92
		c-4.38,0-7.92-3.55-7.92-7.92C558.34,155.8,561.89,152.25,566.26,152.25z M566.26,177.61c4.38,0,7.92,3.55,7.92,7.92
		c0,4.38-3.55,7.92-7.92,7.92c-4.38,0-7.92-3.55-7.92-7.92C558.34,181.15,561.89,177.61,566.26,177.61z M566.26,202.96
		c4.38,0,7.92,3.55,7.92,7.92c0,4.38-3.55,7.92-7.92,7.92c-4.38,0-7.92-3.55-7.92-7.92C558.34,206.51,561.89,202.96,566.26,202.96z
		 M566.26,228.31c4.38,0,7.92,3.55,7.92,7.92c0,4.38-3.55,7.92-7.92,7.92c-4.38,0-7.92-3.55-7.92-7.92
		C558.34,231.86,561.89,228.31,566.26,228.31z M566.26,253.67c4.38,0,7.92,3.55,7.92,7.92c0,4.38-3.55,7.92-7.92,7.92
		c-4.38,0-7.92-3.55-7.92-7.92C558.34,257.21,561.89,253.67,566.26,253.67z M540.91,152.25c4.38,0,7.92,3.55,7.92,7.92
		c0,4.38-3.55,7.92-7.92,7.92c-4.38,0-7.92-3.55-7.92-7.92C532.99,155.8,536.53,152.25,540.91,152.25z M540.91,177.61
		c4.38,0,7.92,3.55,7.92,7.92c0,4.38-3.55,7.92-7.92,7.92c-4.38,0-7.92-3.55-7.92-7.92C532.99,181.15,536.53,177.61,540.91,177.61z
		 M540.91,202.96c4.38,0,7.92,3.55,7.92,7.92c0,4.38-3.55,7.92-7.92,7.92c-4.38,0-7.92-3.55-7.92-7.92
		C532.99,206.51,536.53,202.96,540.91,202.96z M540.91,228.31c4.38,0,7.92,3.55,7.92,7.92c0,4.38-3.55,7.92-7.92,7.92
		c-4.38,0-7.92-3.55-7.92-7.92C532.99,231.86,536.53,228.31,540.91,228.31z M540.91,253.67c4.38,0,7.92,3.55,7.92,7.92
		c0,4.38-3.55,7.92-7.92,7.92c-4.38,0-7.92-3.55-7.92-7.92C532.99,257.21,536.53,253.67,540.91,253.67z"/>
	<circle class="st15" cx="642.32" cy="160.18" r="7.92"/>
	<circle class="st16" cx="642.32" cy="185.53" r="7.92"/>
	<circle class="st5" cx="642.32" cy="210.88" r="7.92"/>
	<circle class="st9" cx="642.32" cy="236.24" r="7.92"/>
	<circle class="st15" cx="616.97" cy="160.18" r="7.92"/>
	<circle class="st16" cx="616.97" cy="185.53" r="7.92"/>
	<circle class="st5" cx="616.97" cy="210.88" r="7.92"/>
	<circle class="st9" cx="616.97" cy="236.24" r="7.92"/>
	<circle class="st15" cx="591.62" cy="160.18" r="7.92"/>
	<circle class="st16" cx="591.62" cy="185.53" r="7.92"/>
	<circle class="st5" cx="591.62" cy="210.88" r="7.92"/>
	<circle class="st9" cx="591.62" cy="236.24" r="7.92"/>
	
		<ellipse transform="matrix(0.9732 -0.2298 0.2298 0.9732 -21.6529 134.3849)" class="st15" cx="566.26" cy="160.18" rx="7.92" ry="7.92"/>
	
		<ellipse transform="matrix(0.3827 -0.9239 0.9239 0.3827 178.1563 637.6898)" class="st16" cx="566.26" cy="185.53" rx="7.92" ry="7.92"/>
	
		<ellipse transform="matrix(0.3827 -0.9239 0.9239 0.3827 154.7327 653.3409)" class="st5" cx="566.26" cy="210.88" rx="7.92" ry="7.92"/>
	
		<ellipse transform="matrix(0.3827 -0.9239 0.9239 0.3827 131.3092 668.9921)" class="st9" cx="566.26" cy="236.24" rx="7.92" ry="7.92"/>
	<circle class="st15" cx="540.91" cy="160.18" r="7.92"/>
	<circle class="st16" cx="540.91" cy="185.53" r="7.92"/>
	<circle class="st5" cx="540.91" cy="210.88" r="7.92"/>
	<circle class="st9" cx="540.91" cy="236.24" r="7.92"/>
	<path class="st15" d="M274.7,147.5h126.77V84.12c0,17.5-14.19,31.69-31.69,31.69c0-17.5,14.19-31.69,31.69-31.69
		c-17.5,0-31.69-14.19-31.69-31.69c17.5,0,31.69,14.19,31.69,31.69V20.73H274.7v63.38V147.5z M348.32,76.76
		c4.29-0.88,8.47,1.89,9.35,6.17c0.88,4.29-1.89,8.47-6.17,9.35c-4.29,0.88-8.47-1.89-9.35-6.17
		C341.27,81.83,344.03,77.64,348.32,76.76z M337.45,109.45c1.75,8.57-3.77,16.95-12.35,18.7c-8.57,1.75-16.95-3.77-18.7-12.35
		c-1.75-8.57,3.77-16.95,12.35-18.7C327.33,95.35,335.7,100.88,337.45,109.45z M298.63,36.94c8.55-1.75,16.91,3.76,18.66,12.32
		c1.75,8.55-3.76,16.91-12.32,18.66c-8.55,1.75-16.91-3.76-18.66-12.32C284.57,47.04,290.08,38.69,298.63,36.94z"/>
	<path class="st0" d="M369.77,52.42c0,17.5,14.19,31.69,31.69,31.69C401.47,66.61,387.28,52.42,369.77,52.42z"/>
	<path class="st0" d="M369.77,115.81c17.5,0,31.69-14.19,31.69-31.69C383.96,84.12,369.77,98.31,369.77,115.81z"/>
	<path class="st0" d="M306.41,115.81c1.75,8.57,10.13,14.1,18.7,12.35c8.57-1.75,14.1-10.13,12.35-18.7
		c-1.75-8.57-10.13-14.1-18.7-12.35C310.18,98.86,304.65,107.23,306.41,115.81z"/>
	<path class="st0" d="M304.97,67.91c8.55-1.75,14.07-10.1,12.32-18.66c-1.75-8.55-10.1-14.07-18.66-12.32
		c-8.55,1.75-14.07,10.1-12.32,18.66C288.07,64.15,296.42,69.66,304.97,67.91z"/>
	<path class="st0" d="M351.5,92.29c4.29-0.88,7.05-5.06,6.17-9.35c-0.88-4.29-5.06-7.05-9.35-6.17s-7.05,5.06-6.17,9.35
		C343.02,90.4,347.21,93.17,351.5,92.29z"/>
	<path class="st0" d="M84.55,147.5h63.38V84.12C147.93,119.12,119.55,147.5,84.55,147.5z"/>
	<path class="st0" d="M21.16,84.12v63.38h63.38C49.54,147.5,21.16,119.12,21.16,84.12z"/>
	<path class="st0" d="M52.86,52.42c17.5,0,31.69,14.19,31.69,31.69c0-17.5,14.19-31.69,31.69-31.69c0,17.5-14.19,31.69-31.69,31.69
		h63.38V20.73H21.16v63.38h63.38C67.04,84.12,52.86,69.93,52.86,52.42z M84.55,27.71c8.75,0,15.85,7.09,15.85,15.85
		c0,8.75-7.09,15.85-15.85,15.85S68.7,52.3,68.7,43.55C68.7,34.8,75.8,27.71,84.55,27.71z"/>
	<path class="st5" d="M84.55,147.5L84.55,147.5c35.01,0,63.38-28.38,63.38-63.38v0H84.55H21.16v0
		C21.16,119.12,49.54,147.5,84.55,147.5z"/>
	<circle class="st5" cx="84.55" cy="43.55" r="15.85"/>
	<path class="st5" d="M84.55,84.12L52.86,52.42C52.86,69.93,67.04,84.12,84.55,84.12z"/>
	<path class="st9" d="M52.86,52.42l31.69,31.69C84.55,66.61,70.36,52.42,52.86,52.42z"/>
	<path class="st5" d="M116.24,52.42L84.55,84.12C102.05,84.12,116.24,69.93,116.24,52.42z"/>
	<path class="st9" d="M84.55,84.12l31.69-31.69C98.74,52.42,84.55,66.61,84.55,84.12z"/>
	<path class="st15" d="M179.62,70.99c-8.11-8.11-13.13-19.32-13.13-31.69c12.38,0,23.58,5.02,31.69,13.13
		c0-11.47,4.38-22.94,13.13-31.69h-63.38v63.38C156.68,75.36,168.15,70.99,179.62,70.99z"/>
	<path class="st15" d="M256.13,39.3c0,12.38-5.02,23.58-13.13,31.69c11.47,0,22.94,4.38,31.69,13.13V20.73h-63.38
		c8.75,8.75,13.13,20.22,13.13,31.69C232.55,44.31,243.76,39.3,256.13,39.3z"/>
	<path class="st15" d="M198.19,115.81c-8.11,8.11-19.32,13.13-31.69,13.13c0-12.38,5.02-23.58,13.13-31.69
		c-11.47,0-22.94-4.38-31.69-13.13v0v63.38h63.38C202.56,138.75,198.19,127.28,198.19,115.81z"/>
	<path class="st15" d="M256.13,128.94c-12.38,0-23.58-5.02-31.69-13.13c0,11.47-4.38,22.94-13.13,31.69h63.38V84.12
		c-8.75,8.75-20.22,13.13-31.69,13.13C251.12,105.35,256.13,116.56,256.13,128.94z"/>
	<path class="st9" d="M198.19,52.42c-8.11-8.11-19.32-13.13-31.69-13.13l44.82,44.82C202.56,75.36,198.19,63.89,198.19,52.42z"/>
	<path class="st5" d="M166.5,39.3c0,12.38,5.02,23.58,13.13,31.69c11.47,0,22.94,4.38,31.69,13.13L166.5,39.3z"/>
	<path class="st5" d="M224.44,52.42c0,11.47-4.38,22.94-13.13,31.69l44.82-44.82C243.76,39.3,232.55,44.31,224.44,52.42z"/>
	<path class="st9" d="M243.01,70.99c8.11-8.11,13.13-19.32,13.13-31.69l-44.82,44.82C220.07,75.36,231.54,70.99,243.01,70.99z"/>
	<path class="st5" d="M198.19,115.81c0-11.47,4.38-22.94,13.13-31.69l-44.82,44.82C178.87,128.94,190.08,123.92,198.19,115.81z"/>
	<path class="st9" d="M179.62,97.24c-8.11,8.11-13.13,19.32-13.13,31.69l44.82-44.82C202.56,92.87,191.09,97.24,179.62,97.24z"/>
	<path class="st9" d="M256.13,128.94l-44.82-44.82c8.75,8.75,13.13,20.22,13.13,31.69C232.55,123.92,243.76,128.94,256.13,128.94z"
		/>
	<path class="st5" d="M243.01,97.24c-11.47,0-22.94-4.38-31.69-13.13l44.82,44.82C256.13,116.56,251.12,105.35,243.01,97.24z"/>
	<path class="st9" d="M179.62,70.99c-11.47,0-22.94,4.38-31.69,13.13h63.38C202.56,75.36,191.09,70.99,179.62,70.99z"/>
	<path class="st5" d="M211.31,84.12h-63.38c8.75,8.75,20.22,13.13,31.69,13.13C191.09,97.24,202.56,92.87,211.31,84.12z"/>
	<path class="st5" d="M211.31,84.12V20.73c-8.75,8.75-13.13,20.22-13.13,31.69S202.56,75.36,211.31,84.12z"/>
	<path class="st9" d="M224.44,52.42c0-11.47-4.38-22.94-13.13-31.69v63.38C220.07,75.36,224.44,63.89,224.44,52.42z"/>
	<path class="st5" d="M224.44,115.81c0-11.47-4.38-22.94-13.13-31.69v63.38C220.07,138.75,224.44,127.28,224.44,115.81z"/>
	<path class="st9" d="M211.31,147.5V84.12c-8.75,8.75-13.13,20.22-13.13,31.69C198.19,127.28,202.56,138.75,211.31,147.5z"/>
	<path class="st9" d="M243.01,97.24c11.47,0,22.94-4.38,31.69-13.13h-63.38C220.07,92.87,231.54,97.24,243.01,97.24z"/>
	<path class="st5" d="M243.01,70.99c-11.47,0-22.94,4.38-31.69,13.13h63.38C265.95,75.36,254.48,70.99,243.01,70.99z"/>
	<path class="st15" d="M528.23,20.73V50c8.75,0,15.85,7.09,15.85,15.85c0,8.75-7.1,15.85-15.85,15.85v34.32
		c0-17.5,14.19-31.69,31.69-31.69c0,17.5-14.19,31.69-31.69,31.69v31.49c0-17.5,14.19-31.69,31.69-31.69
		c0,17.5-14.19,31.69-31.69,31.69H655V20.73H528.23z"/>
	<path class="st0" d="M559.92,84.32c-17.5,0-31.69,14.19-31.69,31.69C545.74,116.01,559.92,101.82,559.92,84.32z"/>
	<path class="st0" d="M559.92,115.81c-17.5,0-31.69,14.19-31.69,31.69C545.74,147.5,559.92,133.31,559.92,115.81z"/>
	<path class="st9" d="M544.08,65.84c0-8.75-7.1-15.85-15.85-15.85v31.69C536.98,81.69,544.08,74.6,544.08,65.84z"/>
	<path class="st0" d="M433.16,52.42c0,17.5-14.19,31.69-31.69,31.69c17.5,0,31.69,14.19,31.69,31.69
		c-17.5,0-31.69-14.19-31.69-31.69v63.38h63.38h63.38c-35.01,0-63.38-28.38-63.38-63.38c0-35.01,28.38-63.38,63.38-63.38H401.47
		v63.38C401.47,66.61,415.65,52.42,433.16,52.42z"/>
	<path class="st9" d="M433.16,52.42c-17.5,0-31.69,14.19-31.69,31.69C418.97,84.12,433.16,69.93,433.16,52.42z"/>
	<path class="st9" d="M433.16,115.81c0-17.5-14.19-31.69-31.69-31.69C401.47,101.62,415.65,115.81,433.16,115.81z"/>
	<path class="st16" d="M464.85,84.12c0,35.01,28.38,63.38,63.38,63.38c-17.5,0-31.69-14.19-31.69-31.69
		c17.5,0,31.69,14.19,31.69,31.69v-31.49c-17.5,0-31.69-14.19-31.69-31.69c17.5,0,31.69,14.19,31.69,31.69V81.69
		c-8.75,0-15.85-7.09-15.85-15.85c0-8.75,7.09-15.85,15.85-15.85V20.73C493.23,20.73,464.85,49.11,464.85,84.12z"/>
	<path class="st9" d="M496.54,84.32c0,17.5,14.19,31.69,31.69,31.69C528.23,98.51,514.04,84.32,496.54,84.32z"/>
	<path class="st9" d="M496.54,115.81c0,17.5,14.19,31.69,31.69,31.69C528.23,130,514.04,115.81,496.54,115.81z"/>
	<path class="st0" d="M512.39,65.84c0,8.75,7.09,15.85,15.85,15.85V50C519.48,50,512.39,57.09,512.39,65.84z"/>
	<path class="st5" d="M890.25,98.34V89.2h-90.2v9.14c0,24.91,20.19,45.1,45.1,45.1h0C870.06,143.44,890.25,123.25,890.25,98.34z"/>
	<circle class="st5" cx="845.15" cy="40.63" r="15.85"/>
	<path class="st9" d="M845.15,82.2c0-17.5-14.19-31.69-31.69-31.69C813.46,68.02,827.65,82.2,845.15,82.2z"/>
	<path class="st9" d="M876.84,50.51c-17.5,0-31.69,14.19-31.69,31.69C862.65,82.2,876.84,68.02,876.84,50.51z"/>
	<path class="st9" d="M1225.45,84.12c0,35.01-28.38,63.38-63.38,63.38h63.38h63.38V20.73h-126.77
		C1197.07,20.73,1225.45,49.11,1225.45,84.12z"/>
	<path class="st16" d="M1225.45,84.12c0-35.01-28.38-63.38-63.38-63.38V147.5C1197.07,147.5,1225.45,119.12,1225.45,84.12z"/>
	<path class="st9" d="M908.53,147.5h126.77c-35.01,0-63.38-28.38-63.38-63.38c0-35.01,28.38-63.38,63.38-63.38H908.53V147.5z"/>
	<path class="st5" d="M1035.3,147.5l-31.69-31.69C1003.61,133.31,1017.8,147.5,1035.3,147.5z"/>
	<path class="st9" d="M1003.61,115.81l31.69,31.69C1035.3,130,1021.11,115.81,1003.61,115.81z"/>
	<path class="st15" d="M1035.3,20.73V147.5c0-35.01,28.38-63.38,63.38-63.38c0,35.01-28.38,63.38-63.38,63.38h63.38h0l0,0h63.38
		V20.73h-63.38H1035.3z"/>
	<path class="st5" d="M1098.69,84.12l-63.38,63.38C1070.31,147.5,1098.69,119.12,1098.69,84.12z"/>
	<path class="st9" d="M1035.3,147.5l63.38-63.38C1063.68,84.12,1035.3,112.49,1035.3,147.5z"/>
	<path class="st16" d="M655,115.81v31.69h31.69C669.19,147.5,655,133.31,655,115.81z"/>
	<path class="st16" d="M750.08,115.81c0-17.5,14.19-31.69,31.69-31.69V52.42c0,17.5-14.19,31.69-31.69,31.69
		c0,17.5-14.19,31.69-31.69,31.69c17.5,0,31.69,14.19,31.69,31.69h31.69C764.26,147.5,750.08,133.31,750.08,115.81z"/>
	<path class="st16" d="M718.38,115.81c0-17.5,14.19-31.69,31.69-31.69c0-17.5,14.19-31.69,31.69-31.69
		c-17.5,0-31.69-14.19-31.69-31.69h-31.69h0c17.5,0,31.69,14.19,31.69,31.69c0,17.5-14.19,31.69-31.69,31.69
		c0,17.5-14.19,31.69-31.69,31.69c17.5,0,31.69,14.19,31.69,31.69h31.69C732.57,147.5,718.38,133.31,718.38,115.81z"/>
	<path class="st16" d="M781.77,52.42V20.73h-31.69C767.58,20.73,781.77,34.92,781.77,52.42z"/>
	<path class="st16" d="M686.69,147.5h31.69c-17.5,0-31.69-14.19-31.69-31.69s14.19-31.69,31.69-31.69
		c0-17.5,14.19-31.69,31.69-31.69c-17.5,0-31.69-14.19-31.69-31.69l0,0h-31.69c17.5,0,31.69,14.19,31.69,31.69
		c0,17.5-14.19,31.69-31.69,31.69c0,17.5-14.19,31.69-31.69,31.69C672.5,115.81,686.69,130,686.69,147.5z"/>
	<path class="st16" d="M750.08,115.81c17.5,0,31.69,14.19,31.69,31.69V84.12C781.77,101.62,767.58,115.81,750.08,115.81z"/>
	<path class="st16" d="M686.69,84.12c0-17.5,14.19-31.69,31.69-31.69c-17.5,0-31.69-14.19-31.69-31.69H655
		c17.5,0,31.69,14.19,31.69,31.69c0,17.5-14.19,31.69-31.69,31.69v31.69C655,98.31,669.19,84.12,686.69,84.12z"/>
	<path class="st16" d="M686.69,52.42c-17.5,0-31.69-14.19-31.69-31.69v63.38C655,66.61,669.19,52.42,686.69,52.42z"/>
	<path class="st0" d="M750.08,115.81c0,17.5,14.19,31.69,31.69,31.69C781.77,130,767.58,115.81,750.08,115.81z"/>
	<path class="st0" d="M750.08,115.81c17.5,0,31.69-14.19,31.69-31.69C764.26,84.12,750.08,98.31,750.08,115.81z"/>
	<path class="st0" d="M718.38,115.81c0,17.5,14.19,31.69,31.69,31.69C750.08,130,735.89,115.81,718.38,115.81z"/>
	<path class="st0" d="M718.38,115.81c17.5,0,31.69-14.19,31.69-31.69C732.57,84.12,718.38,98.31,718.38,115.81z"/>
	<path class="st0" d="M686.69,115.81c0,17.5,14.19,31.69,31.69,31.69C718.38,130,704.19,115.81,686.69,115.81z"/>
	<path class="st0" d="M718.38,84.12c-17.5,0-31.69,14.19-31.69,31.69C704.19,115.81,718.38,101.62,718.38,84.12z"/>
	<path class="st0" d="M686.69,147.5c0-17.5-14.19-31.69-31.69-31.69C655,133.31,669.19,147.5,686.69,147.5z"/>
	<path class="st0" d="M686.69,84.12c-17.5,0-31.69,14.19-31.69,31.69C672.5,115.81,686.69,101.62,686.69,84.12z"/>
	<path class="st0" d="M686.69,52.42c-17.5,0-31.69,14.19-31.69,31.69C672.5,84.12,686.69,69.93,686.69,52.42z"/>
	<path class="st0" d="M686.69,52.42c0-17.5-14.19-31.69-31.69-31.69C655,38.24,669.19,52.42,686.69,52.42z"/>
	<path class="st0" d="M686.69,84.12c17.5,0,31.69-14.19,31.69-31.69C700.88,52.42,686.69,66.61,686.69,84.12z"/>
	<path class="st0" d="M718.38,52.42c0-17.5-14.19-31.69-31.69-31.69C686.69,38.24,700.88,52.42,718.38,52.42z"/>
	<path class="st0" d="M750.08,52.42c-17.5,0-31.69,14.19-31.69,31.69C735.89,84.12,750.08,69.93,750.08,52.42z"/>
	<path class="st0" d="M718.38,20.73c0,17.5,14.19,31.69,31.69,31.69C750.08,34.92,735.89,20.73,718.38,20.73z"/>
	<path class="st0" d="M750.08,84.12c17.5,0,31.69-14.19,31.69-31.69C764.26,52.42,750.08,66.61,750.08,84.12z"/>
	<path class="st0" d="M750.08,20.73c0,17.5,14.19,31.69,31.69,31.69C781.77,34.92,767.58,20.73,750.08,20.73z"/>
	<path class="st16" d="M908.53,274.27h126.77v-63.38v0V147.5H908.53V274.27z M1008.91,163.53c8.75,0,15.85,7.09,15.85,15.85
		c0,8.75-7.09,15.85-15.85,15.85c-8.75,0-15.85-7.09-15.85-15.85C993.06,170.62,1000.15,163.53,1008.91,163.53z M972.32,163.53
		c8.75,0,15.85,7.09,15.85,15.85c0,8.75-7.09,15.85-15.85,15.85c-8.75,0-15.85-7.09-15.85-15.85
		C956.48,170.62,963.57,163.53,972.32,163.53z M935.74,163.18c8.75,0,15.85,7.09,15.85,15.85c0,8.75-7.09,15.85-15.85,15.85
		c-8.75,0-15.85-7.09-15.85-15.85C919.9,170.27,926.99,163.18,935.74,163.18z"/>
	<circle class="st0" cx="935.74" cy="179.02" r="15.85"/>
	
		<ellipse transform="matrix(0.9732 -0.2298 0.2298 0.9732 -15.2011 228.1921)" class="st0" cx="972.32" cy="179.37" rx="15.85" ry="15.85"/>
	
		<ellipse transform="matrix(0.9732 -0.2298 0.2298 0.9732 -14.2225 236.5969)" class="st0" cx="1008.91" cy="179.37" rx="15.85" ry="15.85"/>
	<path class="st0" d="M1035.3,210.88v63.38h63.38C1063.68,274.27,1035.3,245.89,1035.3,210.88z"/>
	<path class="st0" d="M1098.69,274.27h63.38v-63.38C1162.07,245.89,1133.69,274.27,1098.69,274.27z"/>
	<path class="st0" d="M1162.07,210.88V147.5h-63.38C1133.69,147.5,1162.07,175.88,1162.07,210.88z"/>
	<path class="st0" d="M1098.69,147.5h-63.38v63.38C1035.3,175.88,1063.68,147.5,1098.69,147.5z"/>
	<path class="st15" d="M1035.3,210.88L1035.3,210.88c0,35.01,28.38,63.38,63.38,63.38h0V147.5h0
		C1063.68,147.5,1035.3,175.88,1035.3,210.88z"/>
	<path class="st9" d="M1098.69,274.27c35.01,0,63.38-28.38,63.38-63.38l0,0v0c0-35.01-28.38-63.38-63.38-63.38l0,0V274.27
		L1098.69,274.27z"/>
	<path class="st15" d="M781.77,274.27V147.5h-31.69h-31.69h-31.69H655v126.77h63.38H781.77z M718.38,163.35
		c17.5,0,31.69,14.19,31.69,31.69c0,17.5-14.19,31.69-31.69,31.69c-17.5,0-31.69-14.19-31.69-31.69
		C686.69,177.53,700.88,163.35,718.38,163.35z M686.69,226.73c17.5,0,31.69,14.19,31.69,31.69c0-17.5,14.19-31.69,31.69-31.69
		c0,17.5-14.19,31.69-31.69,31.69C700.88,258.42,686.69,244.23,686.69,226.73z"/>
	<path class="st5" d="M686.69,226.73c0,17.5,14.19,31.69,31.69,31.69L686.69,226.73z"/>
	<path class="st9" d="M686.69,226.73l31.69,31.69C718.38,240.92,704.19,226.73,686.69,226.73z"/>
	<path class="st5" d="M750.08,226.73l-31.69,31.69C735.89,258.42,750.08,244.23,750.08,226.73z"/>
	<path class="st9" d="M718.38,258.42l31.69-31.69C732.57,226.73,718.38,240.92,718.38,258.42z"/>
	<path class="st0" d="M718.38,226.73c17.5,0,31.69-14.19,31.69-31.69c0-17.5-14.19-31.69-31.69-31.69
		c-17.5,0-31.69,14.19-31.69,31.69C686.69,212.54,700.88,226.73,718.38,226.73z M718.38,179.19c8.75,0,15.85,7.09,15.85,15.85
		c0,8.75-7.09,15.85-15.85,15.85s-15.85-7.09-15.85-15.85C702.54,186.29,709.63,179.19,718.38,179.19z"/>
	<circle class="st5" cx="718.38" cy="195.04" r="15.85"/>
	<path class="st0" d="M1241.3,163.35c0,3.53-1.15,6.78-3.1,9.42c0.56-0.75,1.14-1.48,1.73-2.2c0.65-0.78,1.31-1.55,1.99-2.3
		c0.34-0.38,0.69-0.75,1.04-1.11c0.7-0.73,1.42-1.45,2.15-2.15c0.37-0.35,0.74-0.7,1.11-1.04c4.13-3.75,8.75-6.97,13.76-9.53
		c1.37-0.7,2.76-1.35,4.18-1.95c1.42-0.6,2.87-1.15,4.34-1.65c0.98-0.33,1.97-0.64,2.98-0.93c2.01-0.57,4.05-1.04,6.13-1.41
		c3.64-0.65,7.39-0.99,11.22-0.99h-63.38C1234.2,147.5,1241.3,154.59,1241.3,163.35z"/>
	<path class="st0" d="M1212.71,172.76c-1.95-2.63-3.1-5.89-3.1-9.42c0-8.75,7.09-15.85,15.85-15.85h-63.38
		C1182.76,147.5,1201.14,157.42,1212.71,172.76z"/>
	<path class="st0" d="M1162.07,274.27c0-20.7,9.92-39.07,25.26-50.64c-2.63,1.95-5.89,3.1-9.42,3.1c-8.75,0-15.85-7.09-15.85-15.85
		l0,0V274.27z"/>
	<path class="st0" d="M1162.07,210.88c0-8.75,7.09-15.85,15.85-15.85c3.53,0,6.78,1.15,9.42,3.1
		c-15.34-11.57-25.26-29.95-25.26-50.64V210.88L1162.07,210.88z"/>
	<path class="st0" d="M1193.76,210.88c0,5.13-2.44,9.68-6.21,12.58c10.57-7.9,23.69-12.58,37.91-12.58
		c-14.21,0-27.33-4.68-37.91-12.58C1191.32,201.2,1193.76,205.76,1193.76,210.88z"/>
	<path class="st0" d="M1225.45,247.95c6.72,0,12.85,2.52,17.5,6.67c-1.4-1.47-2.73-3-3.98-4.6c-0.31-0.4-0.62-0.8-0.93-1.21
		c-0.61-0.81-1.2-1.64-1.77-2.49c-1.71-2.53-3.24-5.19-4.57-7.96c-0.45-0.92-0.87-1.86-1.27-2.81c-0.4-0.95-0.78-1.91-1.13-2.88
		c-0.36-0.97-0.69-1.95-1-2.95c-0.31-0.99-0.59-2-0.85-3.01c-0.39-1.52-0.73-3.06-1.01-4.62c-0.65-3.64-0.99-7.39-0.99-11.22
		c0,16.96-6.66,32.36-17.5,43.73C1212.6,250.47,1218.73,247.95,1225.45,247.95z"/>
	<path class="st0" d="M1225.45,179.19c-5.13,0-9.68-2.44-12.58-6.21c7.9,10.57,12.58,23.69,12.58,37.91c0-3.83,0.34-7.58,0.99-11.22
		c0.28-1.56,0.61-3.1,1.01-4.62c2.08-8.09,5.72-15.56,10.58-22.07C1235.14,176.75,1230.58,179.19,1225.45,179.19z"/>
	<path class="st15" d="M1225.45,210.88c35.01,0,63.38,28.38,63.38,63.38V147.5C1288.84,182.51,1260.46,210.88,1225.45,210.88z"/>
	<path class="st9" d="M1212.87,172.98c-0.05-0.07-0.11-0.14-0.16-0.21c-11.57-15.34-29.95-25.26-50.64-25.26l63.38,63.38
		C1225.45,196.67,1220.77,183.55,1212.87,172.98z"/>
	<path class="st5" d="M1187.33,198.14c0.07,0.05,0.14,0.11,0.21,0.16c10.57,7.9,23.69,12.58,37.91,12.58l-63.38-63.38
		C1162.07,168.2,1171.99,186.57,1187.33,198.14z"/>
	<path class="st5" d="M1271.48,149.9c-1,0.28-2,0.59-2.98,0.93c-1.47,0.5-2.92,1.05-4.34,1.65c-1.42,0.6-2.82,1.25-4.18,1.95
		c-5.01,2.57-9.64,5.78-13.76,9.53c-0.38,0.34-0.75,0.69-1.11,1.04c-0.73,0.7-1.45,1.42-2.15,2.15c-0.35,0.37-0.7,0.74-1.04,1.11
		c-0.68,0.75-1.35,1.52-1.99,2.3c-0.59,0.72-1.17,1.45-1.73,2.2c-0.05,0.07-0.11,0.14-0.16,0.21c-4.86,6.5-8.5,13.97-10.58,22.07
		c-0.39,1.52-0.73,3.06-1.01,4.62c-0.65,3.64-0.99,7.39-0.99,11.22l63.38-63.38c-3.83,0-7.58,0.34-11.22,0.99
		C1275.54,148.86,1273.49,149.34,1271.48,149.9z"/>
	<path class="st9" d="M1288.84,147.5l-63.38,63.38C1260.46,210.88,1288.84,182.51,1288.84,147.5z"/>
	<path class="st5" d="M1205.8,256.77c0.68-0.76,1.39-1.48,2.15-2.15c10.84-11.37,17.5-26.77,17.5-43.73l-63.38,63.38
		C1179.02,274.27,1194.43,267.61,1205.8,256.77z"/>
	<path class="st9" d="M1187.33,223.63c-15.34,11.57-25.26,29.95-25.26,50.64l63.38-63.38c-14.21,0-27.33,4.68-37.91,12.58
		C1187.47,223.52,1187.4,223.57,1187.33,223.63z"/>
	<path class="st9" d="M1226.44,222.1c0.28,1.56,0.61,3.1,1.01,4.62c0.26,1.01,0.55,2.02,0.85,3.01c0.31,0.99,0.64,1.97,1,2.95
		c0.36,0.97,0.73,1.93,1.13,2.88c0.4,0.95,0.82,1.88,1.27,2.81c1.34,2.77,2.87,5.43,4.57,7.96c0.57,0.84,1.16,1.67,1.77,2.49
		c0.3,0.41,0.61,0.81,0.93,1.21c1.25,1.6,2.58,3.13,3.98,4.6c0.76,0.68,1.48,1.39,2.15,2.15c4.4,4.2,9.41,7.77,14.88,10.57
		c1.37,0.7,2.76,1.35,4.18,1.95c1.42,0.6,2.87,1.15,4.34,1.65c0.98,0.33,1.97,0.64,2.98,0.93c2.01,0.57,4.05,1.04,6.13,1.41
		c3.64,0.65,7.39,0.99,11.22,0.99l-63.38-63.38C1225.45,214.71,1225.79,218.46,1226.44,222.1z"/>
	<path class="st5" d="M1225.45,210.88l63.38,63.38C1288.84,239.26,1260.46,210.88,1225.45,210.88z"/>
	<path class="st15" d="M1177.91,226.73c3.53,0,6.78-1.15,9.42-3.1c0.07-0.05,0.14-0.11,0.21-0.16c3.78-2.9,6.21-7.45,6.21-12.58
		c0-5.13-2.44-9.68-6.21-12.58c-0.07-0.05-0.14-0.11-0.21-0.16c-2.63-1.95-5.89-3.1-9.42-3.1c-8.75,0-15.85,7.09-15.85,15.85
		C1162.07,219.64,1169.16,226.73,1177.91,226.73z"/>
	<path class="st15" d="M1209.61,163.35c0,3.53,1.15,6.78,3.1,9.42c0.05,0.07,0.11,0.14,0.16,0.21c2.9,3.78,7.45,6.21,12.58,6.21
		c5.13,0,9.68-2.44,12.58-6.21c0.05-0.07,0.11-0.14,0.16-0.21c1.95-2.63,3.1-5.89,3.1-9.42c0-8.75-7.09-15.85-15.85-15.85
		C1216.7,147.5,1209.61,154.59,1209.61,163.35z"/>
	<path class="st9" d="M908.53,147.5c0,35.01-28.38,63.38-63.38,63.38c-35,0-63.38-28.38-63.38-63.38v126.77h126.77V147.5z"/>
	<path class="st5" d="M845.15,210.88V147.5h-63.38C781.77,182.51,810.15,210.88,845.15,210.88z"/>
	<path class="st15" d="M845.15,210.88c35.01,0,63.38-28.38,63.38-63.38h-63.38V210.88z"/>
</g>
</svg>
