<?xml version="1.0" encoding="utf-8"?>
<!-- Generator: Adobe Illustrator 26.0.0, SVG Export Plug-In . SVG Version: 6.00 Build 0)  -->
<svg version="1.1" id="Layer_1" xmlns="http://www.w3.org/2000/svg" xmlns:xlink="http://www.w3.org/1999/xlink" x="0px" y="0px"
	 viewBox="0 0 500 500" style="enable-background:new 0 0 500 500;" xml:space="preserve">
<style type="text/css">
	.st0{fill:#FFFFFF;}
	.st1{clip-path:url(#SVGID_00000036932078630905854830000001257639924159851660_);fill:#FFFFFF;}
	.st2{clip-path:url(#SVGID_00000125585321547244510970000009412695385036739762_);fill:#FFFFFF;}
	.st3{clip-path:url(#SVGID_00000075843456390064506510000010710933425082887060_);fill:#FFFFFF;}
	.st4{clip-path:url(#SVGID_00000143582858087280864760000012784732739533253309_);fill:#FFFFFF;}
	.st5{fill:#12733B;}
	.st6{clip-path:url(#SVGID_00000117656244049392319420000006391333691390282637_);fill:#16A74B;}
	.st7{clip-path:url(#SVGID_00000129179206479083816120000012653614267869627545_);fill:#16A74B;}
	.st8{clip-path:url(#SVGID_00000085250673891013817510000015274765587921525692_);fill:#16A74B;}
	.st9{fill:#16A74B;}
	.st10{clip-path:url(#SVGID_00000050648694627191267130000010223728467951038857_);fill:#16A74B;}
	.st11{clip-path:url(#SVGID_00000084531078428683435450000003523919728233110156_);fill:#16A74B;}
	.st12{clip-path:url(#SVGID_00000043450391933442104350000006860342376686681520_);fill:#16A74B;}
	.st13{clip-path:url(#SVGID_00000073709061702781595100000016286942734616339095_);fill:#16A74B;}
	.st14{clip-path:url(#SVGID_00000093145877865457792080000013961948946933822104_);fill:#16A74B;}
	.st15{fill:#35B34A;}
	.st16{fill:#308B58;}
	.st17{fill:none;stroke:#11A74B;stroke-width:1.4571;stroke-miterlimit:10;}
	.st18{fill:#08743B;}
	.st19{fill:#14A64A;}
	.st20{fill:#30B44A;}
	.st21{fill:#D9D9D8;}
	.st22{clip-path:url(#SVGID_00000026847080110684385170000011359646904079676581_);fill:#FFFFFF;}
	.st23{clip-path:url(#SVGID_00000176029293805872810640000011348045748396955816_);fill:#FFFFFF;}
	.st24{clip-path:url(#SVGID_00000020357570377504616820000016918832908826710934_);fill:#FFFFFF;}
	.st25{clip-path:url(#SVGID_00000025437943218842302090000013060026634450854275_);fill:#FFFFFF;}
</style>
<g>
	<g>
		<path class="st5" d="M381.73,196.3c0-72.88-59.08-131.96-131.96-131.96c-6.77,0-13.42,0.51-19.91,1.5
			c3.1,8.71,5.02,17.97,5.55,27.61c4.7-0.65,9.49-0.99,14.37-0.99c57.35,0,103.84,46.49,103.84,103.84
			c0,57.35-46.49,103.84-103.84,103.84c-32.31,0-61.16-14.76-80.21-37.9c-24.72-11.97-43.69-33.95-51.64-60.69
			c2.76,70.45,60.73,126.71,131.85,126.71c34.12,0,65.21-12.95,88.63-34.19c-21.47,22.66-51,37.85-84.56,40.71
			c-32.29,2.75-62.85-6.38-87.38-23.74c24,34.01,51.08,65.65,79.29,96.42c3.63,3.96,5.22,3.27,8.44-0.25
			c19.46-21.23,38.38-42.92,56.13-65.61c20.23-25.87,39.51-52.38,54.91-81.37C375.74,241.28,381.73,219.49,381.73,196.3"/>
		<g>
			<defs>
				<path id="SVGID_00000014616922874200104980000012942275659033473159_" d="M182.67,50.33c0.75,23.37-12.75,34.34-23,42.62
					c-6.29,5.08-39.82,28.6-40,75.15s33.09,72.91,45.61,79.64c0,0-19.57-16.28-18.32-55.71c1.87-58.7,58.89-77.76,48.61-136.28
					c0,0,11.59,16.08,3.92,50.47c-7.67,34.39-26.92,37.57-34.02,74.03l0.12-0.07c-0.99,5.22-1.52,10.61-1.52,16.12
					c0,47.33,38.37,85.7,85.7,85.7c43.99,0,80.24-33.16,85.13-75.85h-25.58c-4.7,28.65-29.56,50.51-59.54,50.51
					c-33.34,0-60.36-27.02-60.36-60.36c0-14.06,6.42-28.85,12.8-36.76c8.89-11.43,31.29-37.38,21.4-80.23
					C211.47,26.69,166.59,15,166.59,15S181.92,26.96,182.67,50.33"/>
			</defs>
			<clipPath id="SVGID_00000127040344495167027930000011338002744482237352_">
				<use xlink:href="#SVGID_00000014616922874200104980000012942275659033473159_"  style="overflow:visible;"/>
			</clipPath>
			
				<rect x="119.48" y="15" style="clip-path:url(#SVGID_00000127040344495167027930000011338002744482237352_);fill:#16A74B;" width="215.41" height="266.99"/>
		</g>
		<path class="st5" d="M202.21,159.53c8.89-11.42,31.29-37.38,21.4-80.23C211.47,26.69,166.59,15,166.59,15s15.33,11.96,16.08,35.33
			c0.75,23.37-12.75,34.34-22.99,42.62c-6.29,5.08-39.82,28.6-40.01,75.15c-0.19,46.55,33.09,72.91,45.61,79.64
			c0,0-19.57-16.28-18.32-55.71c1.87-58.7,58.89-77.76,48.61-136.28c0,0,11.59,16.08,3.93,50.47c-7.67,34.4-26.92,37.58-34.02,74.03
			l0.12-0.07c-0.99,5.22-4.82,32.52,7.76,54.32C162.45,199.71,195.83,167.45,202.21,159.53"/>
		<g>
			<defs>
				<path id="SVGID_00000009550510061610963400000012721195886182999681_" d="M185.27,62.24c-2.71,17.05-15.14,27.25-24.86,34.59
					c0,0-29.8,22.87-34.38,52.64c-4.58,29.77,0.38,51.91,19.09,75.96c0,0-11.54-34.81,4.78-67.88
					c11.95-24.23,23.83-38.25,30.6-48.13c11.47-16.74,16.74-39.2,12.43-59.29c0,0,19.12,13.05,9.24,62.8
					c-9.25,46.59,9.37,27.59,12.42,21.28c8.14-16.81,10.53-46.78,0.97-69.41c-13.32-31.53-38.41-41.76-38.41-41.76
					S189.89,38.01,185.27,62.24"/>
			</defs>
			<clipPath id="SVGID_00000152971840767027463040000009081076677070615707_">
				<use xlink:href="#SVGID_00000009550510061610963400000012721195886182999681_"  style="overflow:visible;"/>
			</clipPath>
			
				<rect x="64.67" y="55.76" transform="matrix(0.172 -0.9851 0.9851 0.172 21.092 273.5536)" style="clip-path:url(#SVGID_00000152971840767027463040000009081076677070615707_);fill:#16A74B;" width="217.21" height="136.94"/>
		</g>
		<path class="st5" d="M330.84,168.53c-11.54-33.69-43.46-57.92-81.07-57.92c-5.14,0-10.17,0.45-15.06,1.32
			c-1.34,10.15-4.21,19.81-8.39,28.74c7.21-3.04,15.13-4.73,23.45-4.73c23.27,0,41.82,13.3,51.89,32.59"/>
		<g>
			<defs>
				<path id="SVGID_00000064336001658182745100000013519070680364740499_" d="M237.44,114.61c-1.1,7.12-2.95,14.08-5.53,20.8
					c5.77-1.7,11.75-2.55,17.86-2.55c23.71,0,45.26,13.08,56.25,34.13l0.81,1.55h20.77c-4.14-11.65-10.9-22.3-19.96-31.19
					c-15.54-15.25-36.09-23.65-57.86-23.65C245.64,113.69,241.5,114,237.44,114.61"/>
			</defs>
			<clipPath id="SVGID_00000032624462178494027420000014735354063496721059_">
				<use xlink:href="#SVGID_00000064336001658182745100000013519070680364740499_"  style="overflow:visible;"/>
			</clipPath>
			
				<rect x="231.91" y="113.69" style="clip-path:url(#SVGID_00000032624462178494027420000014735354063496721059_);fill:#16A74B;" width="95.68" height="54.84"/>
		</g>
		<path class="st9" d="M303.28,224.62H252.9h-0.62v-26.16h74.27v0h8.88c-0.18,9.15-1.81,17.93-4.65,26.16H303.28z"/>
		<g>
			<defs>
				<path id="SVGID_00000096748157556437785150000001258728887184762501_" d="M255.37,201.54v19.99h53l-1.61,3.09h20.79
					c2.63-7.36,4.23-15.1,4.69-23.07h-8.76v-0.01H255.37z"/>
			</defs>
			<clipPath id="SVGID_00000165206285768508155120000015424470317637716927_">
				<use xlink:href="#SVGID_00000096748157556437785150000001258728887184762501_"  style="overflow:visible;"/>
			</clipPath>
			
				<rect x="255.37" y="201.54" style="clip-path:url(#SVGID_00000165206285768508155120000015424470317637716927_);fill:#16A74B;" width="76.87" height="23.08"/>
		</g>
	</g>
	<g>
		<g>
			<path class="st5" d="M93.67,459.79v24.54h-6.57c-0.53-1.82-1.12-3.35-1.76-4.59c-2.72,3.51-6.73,5.26-12.06,5.26
				c-5.65,0-10.29-1.97-13.92-5.92c-3.63-3.95-5.45-9.29-5.45-16.02c0-6.55,1.76-12.05,5.28-16.5c3.52-4.46,8.75-6.69,15.7-6.69
				c5.21,0,9.42,1.33,12.6,3.98c3.19,2.65,5.25,6.41,6.19,11.29l-13.02,1.28c-0.64-4.56-2.64-6.83-6-6.83
				c-4.41,0-6.61,4.19-6.61,12.58c0,5.07,0.71,8.41,2.12,10.02c1.41,1.62,3.12,2.42,5.13,2.42c1.62,0,3.01-0.49,4.16-1.47
				c1.14-0.98,1.73-2.33,1.75-4.04h-7.25v-9.3H93.67z"/>
			<path class="st5" d="M139.73,484.33h-14.9l-6.4-16.74h-4.24v16.74h-13.44v-43.78h22.87c5.05,0,8.97,1.18,11.76,3.54
				c2.79,2.36,4.19,5.48,4.19,9.35c0,2.52-0.51,4.75-1.54,6.69c-1.03,1.93-3.1,3.64-6.22,5.12L139.73,484.33z M114.2,458.22h5.74
				c1.69,0,3.04-0.35,4.07-1.05c1.03-0.71,1.54-1.75,1.54-3.11c0-2.8-1.72-4.2-5.16-4.2h-6.19V458.22z"/>
			<path class="st5" d="M179.02,473.87v10.46h-32.94v-43.78h32.94v10.1h-19.76V457h15.97v9.72h-15.97v7.15H179.02z"/>
			<path class="st5" d="M217.28,473.87v10.46h-32.94v-43.78h32.94v10.1h-19.76V457h15.97v9.72h-15.97v7.15H217.28z"/>
			<path class="st5" d="M260.04,484.33H249.1l-11.99-19.34c-1.54-2.48-3.09-5.5-4.65-9.04c0.7,2.82,1.05,5.21,1.05,7.18v21.2h-10.9
				v-43.78h12.7l10.2,16.04c2.03,3.19,3.57,5.99,4.62,8.4c-0.69-3.74-1.03-7.57-1.03-11.48v-12.96h10.94V484.33z"/>
			<path class="st5" d="M317.8,474v10.33h-36.44v-8.37l19.4-25.27h-17.93v-10.14h34.35v8.5L298.35,474H317.8z"/>
			<path class="st5" d="M341.63,485c-6.16,0-11.18-2.04-15.06-6.13c-3.88-4.08-5.82-9.54-5.82-16.39c0-6.54,1.85-11.95,5.56-16.21
				c3.71-4.27,8.86-6.4,15.44-6.4c6.09,0,11.06,2.01,14.9,6.03c3.84,4.02,5.76,9.39,5.76,16.1c0,6.95-1.93,12.52-5.8,16.71
				C352.74,482.91,347.75,485,341.63,485z M341.57,475.06c2.26,0,3.9-0.99,4.89-2.96c0.99-1.98,1.49-5.6,1.49-10.86
				c0-7.61-2.04-11.42-6.13-11.42c-4.41,0-6.61,4.34-6.61,13.02C335.22,470.98,337.34,475.06,341.57,475.06z"/>
			<path class="st5" d="M405.53,484.33h-10.94l-11.99-19.34c-1.54-2.48-3.09-5.5-4.65-9.04c0.71,2.82,1.06,5.21,1.06,7.18v21.2
				h-10.9v-43.78h12.7l10.2,16.04c2.03,3.19,3.57,5.99,4.62,8.4c-0.68-3.74-1.03-7.57-1.03-11.48v-12.96h10.94V484.33z"/>
			<path class="st5" d="M446.1,473.87v10.46h-32.94v-43.78h32.94v10.1h-19.76V457h15.97v9.72h-15.97v7.15H446.1z"/>
		</g>
	</g>
</g>
</svg>
