<?xml version="1.0" encoding="utf-8"?>
<!-- Generator: Adobe Illustrator 26.0.0, SVG Export Plug-In . SVG Version: 6.00 Build 0)  -->
<svg version="1.1" id="Layer_1" xmlns="http://www.w3.org/2000/svg" xmlns:xlink="http://www.w3.org/1999/xlink" x="0px" y="0px"
	 viewBox="0 0 1310 295" style="enable-background:new 0 0 1310 295;" xml:space="preserve">
<style type="text/css">
	.st0{fill:#FFFFFF;}
	.st1{clip-path:url(#SVGID_00000057117796527261834830000005132091395248908968_);fill:#FFFFFF;}
	.st2{clip-path:url(#SVGID_00000023960164271020446060000005525780370381786036_);fill:#FFFFFF;}
	.st3{clip-path:url(#SVGID_00000039837895938435475810000013211768429314710927_);fill:#FFFFFF;}
	.st4{clip-path:url(#SVGID_00000082370756351243770380000011756269288892102817_);fill:#FFFFFF;}
	.st5{fill:#12733B;}
	.st6{clip-path:url(#SVGID_00000026130208291815032380000013844938597066351768_);fill:#16A74B;}
	.st7{clip-path:url(#SVGID_00000168077034962371128150000016755753883674435251_);fill:#16A74B;}
	.st8{clip-path:url(#SVGID_00000055685748245621365260000013344270448261176741_);fill:#16A74B;}
	.st9{fill:#16A74B;}
	.st10{clip-path:url(#SVGID_00000041274419947793287520000004432011709659217294_);fill:#16A74B;}
	.st11{clip-path:url(#SVGID_00000019675348463905968560000010355125257371171752_);fill:#16A74B;}
	.st12{clip-path:url(#SVGID_00000145758218408432061680000001957690293116541593_);fill:#16A74B;}
	.st13{clip-path:url(#SVGID_00000160888897408198117380000012472443132595551416_);fill:#16A74B;}
	.st14{clip-path:url(#SVGID_00000085213274219132644430000012103473572923005344_);fill:#16A74B;}
	.st15{fill:#35B34A;}
	.st16{fill:#308B58;}
	.st17{fill:none;stroke:#11A74B;stroke-width:1.4571;stroke-miterlimit:10;}
	.st18{fill:#08743B;}
	.st19{fill:#14A64A;}
	.st20{fill:#30B44A;}
	.st21{fill:#D9D9D8;}
	.st22{clip-path:url(#SVGID_00000181768449391537734670000011951044939382429331_);fill:#FFFFFF;}
	.st23{clip-path:url(#SVGID_00000064339293305967774370000010630455815260874921_);fill:#FFFFFF;}
	.st24{clip-path:url(#SVGID_00000115494164218262512220000009259929853460860587_);fill:#FFFFFF;}
	.st25{clip-path:url(#SVGID_00000017484125193210557660000001675003793907485580_);fill:#FFFFFF;}
</style>
<g>
	<path class="st17" d="M283.26,271.41h123.91v-61.96V147.5H283.26v61.96V271.41z M314.24,178.48c8.55,0,16.3,3.47,21.91,9.07
		c0-7.93,3.02-15.86,9.07-21.9c6.05,6.05,9.07,13.98,9.07,21.9c5.61-5.61,13.35-9.07,21.9-9.07c0,8.55-3.47,16.3-9.07,21.9
		c7.93,0,15.86,3.02,21.9,9.07c-6.05,6.05-13.98,9.07-21.9,9.07c5.61,5.61,9.07,13.35,9.07,21.9c-8.55,0-16.3-3.47-21.9-9.07
		c0,7.93-3.02,15.86-9.07,21.9c-6.05-6.05-9.07-13.98-9.07-21.9c-5.61,5.61-13.35,9.07-21.91,9.07c0-8.55,3.47-16.3,9.07-21.9
		c-7.93,0-15.86-3.02-21.91-9.07c6.05-6.05,13.98-9.07,21.91-9.07C317.71,194.78,314.24,187.03,314.24,178.48z"/>
	<path class="st17" d="M345.22,209.46c-6.05-6.05-9.07-13.98-9.07-21.9c-5.61-5.61-13.35-9.07-21.91-9.07
		c0,8.55,3.47,16.3,9.07,21.9C331.24,200.38,339.17,203.41,345.22,209.46z"/>
	<path class="st17" d="M345.22,209.46c6.05-6.05,13.98-9.07,21.91-9.07c5.61-5.61,9.07-13.35,9.07-21.9c-8.55,0-16.3,3.47-21.9,9.07
		C354.29,195.48,351.27,203.41,345.22,209.46z"/>
	<path class="st17" d="M345.22,209.46c-6.05,6.05-13.98,9.07-21.9,9.07c-5.61,5.61-9.07,13.35-9.07,21.9
		c8.55,0,16.3-3.47,21.91-9.07C336.14,223.43,339.17,215.51,345.22,209.46z"/>
	<path class="st17" d="M354.29,231.36c5.61,5.61,13.35,9.07,21.9,9.07c0-8.55-3.47-16.3-9.07-21.9c-7.93,0-15.86-3.02-21.91-9.07
		C351.27,215.51,354.29,223.43,354.29,231.36z"/>
	<path class="st17" d="M323.31,218.53c7.93,0,15.86-3.02,21.9-9.07c-6.05-6.05-13.98-9.07-21.9-9.07c-7.93,0-15.86,3.02-21.91,9.07
		C307.46,215.51,315.38,218.53,323.31,218.53z"/>
	<path class="st17" d="M354.29,187.55c0-7.93-3.02-15.86-9.07-21.9c-6.05,6.05-9.07,13.98-9.07,21.9c0,7.93,3.02,15.86,9.07,21.9
		C351.27,203.41,354.29,195.48,354.29,187.55z"/>
	<path class="st17" d="M345.22,209.46c-6.05,6.05-9.07,13.98-9.07,21.9c0,7.93,3.02,15.86,9.07,21.9c6.05-6.05,9.07-13.98,9.07-21.9
		C354.29,223.43,351.27,215.51,345.22,209.46z"/>
	<path class="st17" d="M345.22,209.46c6.05,6.05,13.98,9.07,21.91,9.07c7.93,0,15.86-3.02,21.9-9.07
		c-6.05-6.05-13.98-9.07-21.9-9.07C359.19,200.38,351.27,203.41,345.22,209.46z"/>
	<path class="st17" d="M221.3,271.41c-34.22,0-61.96-27.74-61.96-61.96l0,0v61.96H221.3z"/>
	<path class="st17" d="M221.3,209.46c0-34.22,27.74-61.96,61.96-61.96H221.3h-61.96C193.57,147.5,221.3,175.24,221.3,209.46z"/>
	<path class="st17" d="M221.3,271.41c0-34.22,27.74-61.96,61.96-61.96V147.5c0,34.22-27.74,61.96-61.96,61.96
		c-34.22,0-61.96-27.74-61.96-61.96l0,0v61.96C193.57,209.46,221.3,237.2,221.3,271.41z"/>
	<path class="st17" d="M221.3,271.41h61.96v-61.96C283.26,243.67,255.52,271.41,221.3,271.41z"/>
	<path class="st17" d="M221.3,271.41l-61.96-61.96C159.35,243.67,187.09,271.41,221.3,271.41z"/>
	<path class="st17" d="M159.35,209.46l61.96,61.96C221.3,237.2,193.57,209.46,159.35,209.46z"/>
	<path class="st17" d="M283.26,209.46l-61.96,61.96C255.52,271.41,283.26,243.67,283.26,209.46z"/>
	<path class="st17" d="M221.3,271.41l61.96-61.96C249.04,209.46,221.3,237.2,221.3,271.41z"/>
	<path class="st17" d="M221.3,209.46l-61.96-61.96C159.35,181.72,187.09,209.46,221.3,209.46z"/>
	<path class="st17" d="M159.35,147.5l61.96,61.96C221.3,175.24,193.57,147.5,159.35,147.5z"/>
	<path class="st17" d="M283.26,147.5l-61.96,61.96C255.52,209.46,283.26,181.72,283.26,147.5z"/>
	<path class="st17" d="M221.3,209.46l61.96-61.96C249.04,147.5,221.3,175.24,221.3,209.46z"/>
	<path class="st17" d="M35.43,147.5v61.96h61.96C63.17,209.46,35.43,181.72,35.43,147.5z"/>
	<path class="st17" d="M159.35,271.41v-61.96c0,34.22-27.74,61.96-61.96,61.96h30.98H159.35z"/>
	<path class="st17" d="M97.39,209.46h61.96V147.5C159.35,181.72,131.61,209.46,97.39,209.46z"/>
	<path class="st17" d="M97.39,209.46L97.39,209.46c34.22,0,61.96-27.74,61.96-61.96l0,0H97.39h0H35.43l0,0
		C35.43,181.72,63.17,209.46,97.39,209.46z"/>
	<path class="st17" d="M97.39,271.41L97.39,271.41L97.39,271.41c34.22,0,61.96-27.74,61.96-61.96l0,0H97.39h0H35.43l0,0
		C35.43,243.67,63.17,271.41,97.39,271.41z"/>
	<path class="st17" d="M469.13,271.41c-34.22,0-61.96-27.74-61.96-61.96v61.96H469.13z"/>
	<path class="st17" d="M531.09,209.46V147.5h-61.96C503.35,147.5,531.09,175.24,531.09,209.46z"/>
	<path class="st17" d="M469.13,271.41h61.96v-61.96C531.09,243.67,503.35,271.41,469.13,271.41z"/>
	<path class="st17" d="M469.13,147.5h-61.96v61.96C407.17,175.24,434.91,147.5,469.13,147.5z"/>
	<path class="st17" d="M469.13,147.5c-34.22,0-61.96,27.74-61.96,61.96c0,34.22,27.74,61.96,61.96,61.96
		c34.22,0,61.96-27.74,61.96-61.96C531.09,175.24,503.35,147.5,469.13,147.5z M469.13,240.43c-17.11,0-30.98-13.87-30.98-30.98
		s13.87-30.98,30.98-30.98c17.11,0,30.98,13.87,30.98,30.98S486.24,240.43,469.13,240.43z"/>
	
		<ellipse transform="matrix(0.7071 -0.7071 0.7071 0.7071 -10.703 393.0737)" class="st17" cx="469.13" cy="209.46" rx="30.98" ry="30.98"/>
	<path class="st17" d="M531.09,209.46v61.96H655V147.5H531.09V209.46z M642.61,152.15c4.28,0,7.74,3.47,7.74,7.74
		c0,4.28-3.47,7.74-7.74,7.74s-7.74-3.47-7.74-7.74C634.86,155.61,638.33,152.15,642.61,152.15z M642.61,176.93
		c4.28,0,7.74,3.47,7.74,7.74s-3.47,7.74-7.74,7.74s-7.74-3.47-7.74-7.74S638.33,176.93,642.61,176.93z M642.61,201.71
		c4.28,0,7.74,3.47,7.74,7.74s-3.47,7.74-7.74,7.74s-7.74-3.47-7.74-7.74S638.33,201.71,642.61,201.71z M642.61,226.49
		c4.28,0,7.74,3.47,7.74,7.74c0,4.28-3.47,7.74-7.74,7.74s-7.74-3.47-7.74-7.74C634.86,229.96,638.33,226.49,642.61,226.49z
		 M642.61,251.28c4.28,0,7.74,3.47,7.74,7.74c0,4.28-3.47,7.74-7.74,7.74s-7.74-3.47-7.74-7.74
		C634.86,254.74,638.33,251.28,642.61,251.28z M617.83,152.15c4.28,0,7.74,3.47,7.74,7.74c0,4.28-3.47,7.74-7.74,7.74
		s-7.74-3.47-7.74-7.74C610.08,155.61,613.55,152.15,617.83,152.15z M617.83,176.93c4.28,0,7.74,3.47,7.74,7.74
		s-3.47,7.74-7.74,7.74s-7.74-3.47-7.74-7.74S613.55,176.93,617.83,176.93z M617.83,201.71c4.28,0,7.74,3.47,7.74,7.74
		s-3.47,7.74-7.74,7.74s-7.74-3.47-7.74-7.74S613.55,201.71,617.83,201.71z M617.83,226.49c4.28,0,7.74,3.47,7.74,7.74
		c0,4.28-3.47,7.74-7.74,7.74s-7.74-3.47-7.74-7.74C610.08,229.96,613.55,226.49,617.83,226.49z M617.83,251.28
		c4.28,0,7.74,3.47,7.74,7.74c0,4.28-3.47,7.74-7.74,7.74s-7.74-3.47-7.74-7.74C610.08,254.74,613.55,251.28,617.83,251.28z
		 M593.04,152.15c4.28,0,7.74,3.47,7.74,7.74c0,4.28-3.47,7.74-7.74,7.74s-7.74-3.47-7.74-7.74
		C585.3,155.61,588.77,152.15,593.04,152.15z M593.04,176.93c4.28,0,7.74,3.47,7.74,7.74s-3.47,7.74-7.74,7.74s-7.74-3.47-7.74-7.74
		S588.77,176.93,593.04,176.93z M593.04,201.71c4.28,0,7.74,3.47,7.74,7.74s-3.47,7.74-7.74,7.74s-7.74-3.47-7.74-7.74
		S588.77,201.71,593.04,201.71z M593.04,226.49c4.28,0,7.74,3.47,7.74,7.74c0,4.28-3.47,7.74-7.74,7.74s-7.74-3.47-7.74-7.74
		C585.3,229.96,588.77,226.49,593.04,226.49z M593.04,251.28c4.28,0,7.74,3.47,7.74,7.74c0,4.28-3.47,7.74-7.74,7.74
		s-7.74-3.47-7.74-7.74C585.3,254.74,588.77,251.28,593.04,251.28z M568.26,152.15c4.28,0,7.74,3.47,7.74,7.74
		c0,4.28-3.47,7.74-7.74,7.74c-4.28,0-7.74-3.47-7.74-7.74C560.52,155.61,563.98,152.15,568.26,152.15z M568.26,176.93
		c4.28,0,7.74,3.47,7.74,7.74s-3.47,7.74-7.74,7.74c-4.28,0-7.74-3.47-7.74-7.74S563.98,176.93,568.26,176.93z M568.26,201.71
		c4.28,0,7.74,3.47,7.74,7.74s-3.47,7.74-7.74,7.74c-4.28,0-7.74-3.47-7.74-7.74S563.98,201.71,568.26,201.71z M568.26,226.49
		c4.28,0,7.74,3.47,7.74,7.74c0,4.28-3.47,7.74-7.74,7.74c-4.28,0-7.74-3.47-7.74-7.74C560.52,229.96,563.98,226.49,568.26,226.49z
		 M568.26,251.28c4.28,0,7.74,3.47,7.74,7.74c0,4.28-3.47,7.74-7.74,7.74c-4.28,0-7.74-3.47-7.74-7.74
		C560.52,254.74,563.98,251.28,568.26,251.28z M543.48,152.15c4.28,0,7.74,3.47,7.74,7.74c0,4.28-3.47,7.74-7.74,7.74
		c-4.28,0-7.74-3.47-7.74-7.74C535.73,155.61,539.2,152.15,543.48,152.15z M543.48,176.93c4.28,0,7.74,3.47,7.74,7.74
		s-3.47,7.74-7.74,7.74c-4.28,0-7.74-3.47-7.74-7.74S539.2,176.93,543.48,176.93z M543.48,201.71c4.28,0,7.74,3.47,7.74,7.74
		s-3.47,7.74-7.74,7.74c-4.28,0-7.74-3.47-7.74-7.74S539.2,201.71,543.48,201.71z M543.48,226.49c4.28,0,7.74,3.47,7.74,7.74
		c0,4.28-3.47,7.74-7.74,7.74c-4.28,0-7.74-3.47-7.74-7.74C535.73,229.96,539.2,226.49,543.48,226.49z M543.48,251.28
		c4.28,0,7.74,3.47,7.74,7.74c0,4.28-3.47,7.74-7.74,7.74c-4.28,0-7.74-3.47-7.74-7.74C535.73,254.74,539.2,251.28,543.48,251.28z"
		/>
	<circle class="st17" cx="642.61" cy="159.89" r="7.74"/>
	<circle class="st17" cx="642.61" cy="184.67" r="7.74"/>
	<circle class="st17" cx="642.61" cy="209.46" r="7.74"/>
	<circle class="st17" cx="642.61" cy="234.24" r="7.74"/>
	<circle class="st17" cx="642.61" cy="259.02" r="7.74"/>
	<circle class="st17" cx="617.83" cy="159.89" r="7.74"/>
	<circle class="st17" cx="617.83" cy="184.67" r="7.74"/>
	<circle class="st17" cx="617.83" cy="209.46" r="7.74"/>
	<circle class="st17" cx="617.83" cy="234.24" r="7.74"/>
	<circle class="st17" cx="617.83" cy="259.02" r="7.74"/>
	<circle class="st17" cx="593.04" cy="159.89" r="7.74"/>
	<circle class="st17" cx="593.04" cy="184.67" r="7.74"/>
	<circle class="st17" cx="593.04" cy="209.46" r="7.74"/>
	<circle class="st17" cx="593.04" cy="234.24" r="7.74"/>
	<circle class="st17" cx="593.04" cy="259.02" r="7.74"/>
	
		<ellipse transform="matrix(0.9732 -0.2298 0.2298 0.9732 -21.5339 134.8362)" class="st17" cx="568.26" cy="159.89" rx="7.74" ry="7.74"/>
	
		<ellipse transform="matrix(0.3827 -0.9239 0.9239 0.3827 180.1807 639.0071)" class="st17" cx="568.26" cy="184.67" rx="7.74" ry="7.74"/>
	
		<ellipse transform="matrix(0.3827 -0.9239 0.9239 0.3827 157.2845 654.3058)" class="st17" cx="568.26" cy="209.46" rx="7.74" ry="7.74"/>
	
		<ellipse transform="matrix(0.3827 -0.9239 0.9239 0.3827 134.3883 669.6046)" class="st17" cx="568.26" cy="234.24" rx="7.74" ry="7.74"/>
	
		<ellipse transform="matrix(0.9732 -0.2298 0.2298 0.9732 -44.3093 137.4881)" class="st17" cx="568.26" cy="259.02" rx="7.74" ry="7.74"/>
	<circle class="st17" cx="543.48" cy="159.89" r="7.74"/>
	<circle class="st17" cx="543.48" cy="184.67" r="7.74"/>
	<circle class="st17" cx="543.48" cy="209.46" r="7.74"/>
	<circle class="st17" cx="543.48" cy="234.24" r="7.74"/>
	<circle class="st17" cx="543.48" cy="259.02" r="7.74"/>
	<path class="st17" d="M283.26,147.5h123.91V85.54c0,17.11-13.87,30.98-30.98,30.98c0-17.11,13.87-30.98,30.98-30.98
		c-17.11,0-30.98-13.87-30.98-30.98c17.11,0,30.98,13.87,30.98,30.98V23.59H283.26v61.96V147.5z M355.22,78.36
		c4.19-0.86,8.28,1.84,9.14,6.03c0.86,4.19-1.84,8.28-6.03,9.14c-4.19,0.86-8.28-1.84-9.14-6.03
		C348.33,83.31,351.03,79.21,355.22,78.36z M344.6,110.31c1.71,8.38-3.69,16.57-12.07,18.28c-8.38,1.72-16.57-3.69-18.28-12.07
		c-1.72-8.38,3.69-16.57,12.07-18.28C334.7,96.53,342.89,101.93,344.6,110.31z M306.66,39.43c8.36-1.71,16.53,3.68,18.24,12.04
		c1.71,8.36-3.68,16.53-12.04,18.24c-8.36,1.71-16.53-3.68-18.24-12.04S298.3,41.14,306.66,39.43z"/>
	<path class="st17" d="M376.2,54.57c0,17.11,13.87,30.98,30.98,30.98C407.17,68.43,393.3,54.57,376.2,54.57z"/>
	<path class="st17" d="M376.2,116.52c17.11,0,30.98-13.87,30.98-30.98C390.06,85.54,376.2,99.41,376.2,116.52z"/>
	<path class="st17" d="M314.25,116.52c1.72,8.38,9.9,13.78,18.28,12.07c8.38-1.72,13.78-9.9,12.07-18.28
		c-1.72-8.38-9.9-13.78-18.28-12.07C317.94,99.96,312.54,108.14,314.25,116.52z"/>
	<path class="st17" d="M312.86,69.7c8.36-1.71,13.75-9.88,12.04-18.24c-1.71-8.36-9.88-13.75-18.24-12.04
		c-8.36,1.71-13.75,9.88-12.04,18.24S304.49,71.42,312.86,69.7z"/>
	<path class="st17" d="M358.33,93.53c4.19-0.86,6.89-4.95,6.03-9.14c-0.86-4.19-4.95-6.89-9.14-6.03c-4.19,0.86-6.89,4.95-6.03,9.14
		C350.05,91.69,354.14,94.39,358.33,93.53z"/>
	<path class="st17" d="M97.39,147.5h61.96V85.54C159.35,119.76,131.61,147.5,97.39,147.5z"/>
	<path class="st17" d="M35.43,85.54v61.96h61.96C63.17,147.5,35.43,119.76,35.43,85.54z"/>
	<path class="st17" d="M66.41,54.57c17.11,0,30.98,13.87,30.98,30.98c0-17.11,13.87-30.98,30.98-30.98
		c0,17.11-13.87,30.98-30.98,30.98h61.96V23.59H35.43v61.96h61.96C80.28,85.54,66.41,71.67,66.41,54.57z M97.39,30.4
		c8.55,0,15.49,6.93,15.49,15.49c0,8.55-6.93,15.49-15.49,15.49S81.9,54.45,81.9,45.89C81.9,37.34,88.84,30.4,97.39,30.4z"/>
	<path class="st17" d="M97.39,147.5L97.39,147.5c34.22,0,61.96-27.74,61.96-61.96v0H97.39H35.43v0
		C35.43,119.76,63.17,147.5,97.39,147.5z"/>
	<circle class="st17" cx="97.39" cy="45.89" r="15.49"/>
	<path class="st17" d="M97.39,85.54L66.41,54.57C66.41,71.67,80.28,85.54,97.39,85.54z"/>
	<path class="st17" d="M66.41,54.57l30.98,30.98C97.39,68.43,83.52,54.57,66.41,54.57z"/>
	<path class="st17" d="M128.37,54.57L97.39,85.54C114.5,85.54,128.37,71.67,128.37,54.57z"/>
	<path class="st17" d="M97.39,85.54l30.98-30.98C111.26,54.57,97.39,68.43,97.39,85.54z"/>
	<path class="st17" d="M190.33,72.71c-7.93-7.93-12.83-18.88-12.83-30.98c12.1,0,23.05,4.9,30.98,12.83
		c0-11.21,4.28-22.42,12.83-30.98h-61.96v61.96C167.9,76.99,179.11,72.71,190.33,72.71z"/>
	<path class="st17" d="M265.11,41.73c0,12.1-4.9,23.05-12.83,30.98c11.21,0,22.42,4.28,30.98,12.83V23.59H221.3
		c8.55,8.55,12.83,19.77,12.83,30.98C242.06,46.64,253.02,41.73,265.11,41.73z"/>
	<path class="st17" d="M208.47,116.52c-7.93,7.93-18.88,12.83-30.98,12.83c0-12.1,4.9-23.05,12.83-30.98
		c-11.21,0-22.42-4.28-30.98-12.83v0v61.96h61.96C212.75,138.95,208.47,127.73,208.47,116.52z"/>
	<path class="st17" d="M265.11,129.35c-12.1,0-23.05-4.9-30.98-12.83c0,11.21-4.28,22.42-12.83,30.98h61.96V85.54
		c-8.55,8.55-19.77,12.83-30.98,12.83C260.21,106.3,265.11,117.26,265.11,129.35z"/>
	<path class="st17" d="M208.47,54.57c-7.93-7.93-18.88-12.83-30.98-12.83l43.81,43.81C212.75,76.99,208.47,65.78,208.47,54.57z"/>
	<path class="st17" d="M177.49,41.73c0,12.1,4.9,23.05,12.83,30.98c11.21,0,22.42,4.28,30.98,12.83L177.49,41.73z"/>
	<path class="st17" d="M234.14,54.57c0,11.21-4.28,22.42-12.83,30.98l43.81-43.81C253.02,41.73,242.06,46.64,234.14,54.57z"/>
	<path class="st17" d="M252.28,72.71c7.93-7.93,12.83-18.88,12.83-30.98L221.3,85.54C229.86,76.99,241.07,72.71,252.28,72.71z"/>
	<path class="st17" d="M208.47,116.52c0-11.21,4.28-22.42,12.83-30.98l-43.81,43.81C189.59,129.35,200.54,124.45,208.47,116.52z"/>
	<path class="st17" d="M190.33,98.38c-7.93,7.93-12.83,18.88-12.83,30.98l43.81-43.81C212.75,94.1,201.54,98.38,190.33,98.38z"/>
	<path class="st17" d="M265.11,129.35L221.3,85.54c8.55,8.55,12.83,19.77,12.83,30.98C242.06,124.45,253.02,129.35,265.11,129.35z"
		/>
	<path class="st17" d="M252.28,98.38c-11.21,0-22.42-4.28-30.98-12.83l43.81,43.81C265.11,117.26,260.21,106.3,252.28,98.38z"/>
	<path class="st17" d="M190.33,72.71c-11.21,0-22.42,4.28-30.98,12.83h61.96C212.75,76.99,201.54,72.71,190.33,72.71z"/>
	<path class="st17" d="M221.3,85.54h-61.96c8.55,8.55,19.77,12.83,30.98,12.83C201.54,98.38,212.75,94.1,221.3,85.54z"/>
	<path class="st17" d="M221.3,85.54V23.59c-8.55,8.55-12.83,19.77-12.83,30.98S212.75,76.99,221.3,85.54z"/>
	<path class="st17" d="M234.14,54.57c0-11.21-4.28-22.42-12.83-30.98v61.96C229.86,76.99,234.14,65.78,234.14,54.57z"/>
	<path class="st17" d="M234.14,116.52c0-11.21-4.28-22.42-12.83-30.98v61.96C229.86,138.95,234.14,127.73,234.14,116.52z"/>
	<path class="st17" d="M221.3,147.5V85.54c-8.55,8.55-12.83,19.77-12.83,30.98C208.47,127.73,212.75,138.95,221.3,147.5z"/>
	<path class="st17" d="M252.28,98.38c11.21,0,22.42-4.28,30.98-12.83H221.3C229.86,94.1,241.07,98.38,252.28,98.38z"/>
	<path class="st17" d="M252.28,72.71c-11.21,0-22.42,4.28-30.98,12.83h61.96C274.71,76.99,263.49,72.71,252.28,72.71z"/>
	<path class="st17" d="M531.09,23.59v28.61c8.55,0,15.49,6.93,15.49,15.49c0,8.56-6.94,15.49-15.49,15.49v33.55
		c0-17.11,13.87-30.98,30.98-30.98c0,17.11-13.87,30.98-30.98,30.98v30.78c0-17.11,13.87-30.98,30.98-30.98
		c0,17.11-13.87,30.98-30.98,30.98H655V23.59H531.09z"/>
	<path class="st17" d="M562.07,85.74c-17.11,0-30.98,13.87-30.98,30.98C548.2,116.72,562.07,102.85,562.07,85.74z"/>
	<path class="st17" d="M562.07,116.52c-17.11,0-30.98,13.87-30.98,30.98C548.2,147.5,562.07,133.63,562.07,116.52z"/>
	<path class="st17" d="M546.58,67.68c0-8.56-6.94-15.49-15.49-15.49v30.98C539.64,83.17,546.58,76.24,546.58,67.68z"/>
	<path class="st17" d="M438.15,54.57c0,17.11-13.87,30.98-30.98,30.98c17.11,0,30.98,13.87,30.98,30.98
		c-17.11,0-30.98-13.87-30.98-30.98v61.96h61.96h61.96c-34.22,0-61.96-27.74-61.96-61.96c0-34.22,27.74-61.96,61.96-61.96H407.17
		v61.96C407.17,68.43,421.04,54.57,438.15,54.57z"/>
	<path class="st17" d="M438.15,54.57c-17.11,0-30.98,13.87-30.98,30.98C424.28,85.54,438.15,71.67,438.15,54.57z"/>
	<path class="st17" d="M438.15,116.52c0-17.11-13.87-30.98-30.98-30.98C407.17,102.65,421.04,116.52,438.15,116.52z"/>
	<path class="st17" d="M469.13,85.54c0,34.22,27.74,61.96,61.96,61.96c-17.11,0-30.98-13.87-30.98-30.98
		c17.11,0,30.98,13.87,30.98,30.98v-30.78c-17.11,0-30.98-13.87-30.98-30.98c17.11,0,30.98,13.87,30.98,30.98V83.17
		c-8.56,0-15.49-6.93-15.49-15.49c0-8.56,6.93-15.49,15.49-15.49V23.59C496.87,23.59,469.13,51.33,469.13,85.54z"/>
	<path class="st17" d="M500.11,85.74c0,17.11,13.87,30.98,30.98,30.98C531.09,99.61,517.22,85.74,500.11,85.74z"/>
	<path class="st17" d="M500.11,116.52c0,17.11,13.87,30.98,30.98,30.98C531.09,130.39,517.22,116.52,500.11,116.52z"/>
	<path class="st17" d="M515.6,67.68c0,8.56,6.93,15.49,15.49,15.49V52.19C522.53,52.19,515.6,59.13,515.6,67.68z"/>
	<path class="st17" d="M902.83,147.5V23.59h-61.96h-61.96v30.98v30.98v61.96h61.96H902.83z M840.87,27.55
		c8.55,0,15.49,6.93,15.49,15.49c0,8.55-6.93,15.49-15.49,15.49c-8.55,0-15.49-6.93-15.49-15.49
		C825.38,34.49,832.32,27.55,840.87,27.55z M840.87,83.67c0-17.11,13.87-30.98,30.98-30.98C871.85,69.8,857.98,83.67,840.87,83.67
		c-17.11,0-30.98-13.87-30.98-30.98C827,52.7,840.87,66.57,840.87,83.67z M796.78,99.45v-8.94h88.17v8.94
		c0,24.35-19.74,44.09-44.09,44.09h0C816.52,143.54,796.78,123.8,796.78,99.45z"/>
	<path class="st17" d="M884.96,99.45v-8.94h-88.17v8.94c0,24.35,19.74,44.09,44.09,44.09h0C865.22,143.54,884.96,123.8,884.96,99.45
		z"/>
	<circle class="st17" cx="840.87" cy="43.04" r="15.49"/>
	<path class="st17" d="M840.87,83.67c0-17.11-13.87-30.98-30.98-30.98C809.89,69.8,823.76,83.67,840.87,83.67z"/>
	<path class="st17" d="M871.85,52.7c-17.11,0-30.98,13.87-30.98,30.98C857.98,83.67,871.85,69.8,871.85,52.7z"/>
	<path class="st17" d="M1212.61,85.54c0,34.22-27.74,61.96-61.96,61.96h61.96h61.96V23.59h-123.91
		C1184.87,23.59,1212.61,51.33,1212.61,85.54z"/>
	<path class="st17" d="M1212.61,85.54c0-34.22-27.74-61.96-61.96-61.96V147.5C1184.87,147.5,1212.61,119.76,1212.61,85.54z"/>
	<path class="st17" d="M902.83,147.5h123.91c-34.22,0-61.96-27.74-61.96-61.96c0-34.22,27.74-61.96,61.96-61.96H902.83V147.5z"/>
	<path class="st17" d="M964.78,85.54c0,34.22,27.74,61.96,61.96,61.96c-17.11,0-30.98-13.87-30.98-30.98
		c17.11,0,30.98,13.87,30.98,30.98V23.59C992.52,23.59,964.78,51.33,964.78,85.54z"/>
	<path class="st17" d="M1026.74,147.5l-30.98-30.98C995.76,133.63,1009.63,147.5,1026.74,147.5z"/>
	<path class="st17" d="M995.76,116.52l30.98,30.98C1026.74,130.39,1012.87,116.52,995.76,116.52z"/>
	<path class="st17" d="M1026.74,23.59V147.5c0-34.22,27.74-61.96,61.96-61.96c0,34.22-27.74,61.96-61.96,61.96h61.96h0l0,0h61.96
		V23.59h-61.96H1026.74z"/>
	<path class="st17" d="M1088.7,85.54l-61.96,61.96C1060.96,147.5,1088.7,119.76,1088.7,85.54z"/>
	<path class="st17" d="M1026.74,147.5l61.96-61.96C1054.48,85.54,1026.74,113.28,1026.74,147.5z"/>
	<path class="st17" d="M655,116.52v30.98h30.98C668.87,147.5,655,133.63,655,116.52z"/>
	<path class="st17" d="M747.93,116.52c0-17.11,13.87-30.98,30.98-30.98V54.57c0,17.11-13.87,30.98-30.98,30.98
		c0,17.11-13.87,30.98-30.98,30.98c17.11,0,30.98,13.87,30.98,30.98h30.98C761.8,147.5,747.93,133.63,747.93,116.52z"/>
	<path class="st17" d="M716.96,116.52c0-17.11,13.87-30.98,30.98-30.98c0-17.11,13.87-30.98,30.98-30.98
		c-17.11,0-30.98-13.87-30.98-30.98h-30.98h0c17.11,0,30.98,13.87,30.98,30.98c0,17.11-13.87,30.98-30.98,30.98
		c0,17.11-13.87,30.98-30.98,30.98c17.11,0,30.98,13.87,30.98,30.98h30.98C730.83,147.5,716.96,133.63,716.96,116.52z"/>
	<path class="st17" d="M778.91,54.57V23.59h-30.98C765.04,23.59,778.91,37.46,778.91,54.57z"/>
	<path class="st17" d="M685.98,147.5h30.98c-17.11,0-30.98-13.87-30.98-30.98s13.87-30.98,30.98-30.98
		c0-17.11,13.87-30.98,30.98-30.98c-17.11,0-30.98-13.87-30.98-30.98l0,0h-30.98c17.11,0,30.98,13.87,30.98,30.98
		c0,17.11-13.87,30.98-30.98,30.98c0,17.11-13.87,30.98-30.98,30.98C672.11,116.52,685.98,130.39,685.98,147.5z"/>
	<path class="st17" d="M747.93,116.52c17.11,0,30.98,13.87,30.98,30.98V85.54C778.91,102.65,765.04,116.52,747.93,116.52z"/>
	<path class="st17" d="M685.98,85.54c0-17.11,13.87-30.98,30.98-30.98c-17.11,0-30.98-13.87-30.98-30.98H655
		c17.11,0,30.98,13.87,30.98,30.98c0,17.11-13.87,30.98-30.98,30.98v30.98C655,99.41,668.87,85.54,685.98,85.54z"/>
	<path class="st17" d="M685.98,54.57C668.87,54.57,655,40.7,655,23.59v61.96C655,68.43,668.87,54.57,685.98,54.57z"/>
	<path class="st17" d="M747.93,116.52c0,17.11,13.87,30.98,30.98,30.98C778.91,130.39,765.04,116.52,747.93,116.52z"/>
	<path class="st17" d="M747.93,116.52c17.11,0,30.98-13.87,30.98-30.98C761.8,85.54,747.93,99.41,747.93,116.52z"/>
	<path class="st17" d="M716.96,116.52c0,17.11,13.87,30.98,30.98,30.98C747.93,130.39,734.07,116.52,716.96,116.52z"/>
	<path class="st17" d="M716.96,116.52c17.11,0,30.98-13.87,30.98-30.98C730.83,85.54,716.96,99.41,716.96,116.52z"/>
	<path class="st17" d="M685.98,116.52c0,17.11,13.87,30.98,30.98,30.98C716.96,130.39,703.09,116.52,685.98,116.52z"/>
	<path class="st17" d="M716.96,85.54c-17.11,0-30.98,13.87-30.98,30.98C703.09,116.52,716.96,102.65,716.96,85.54z"/>
	<path class="st17" d="M685.98,147.5c0-17.11-13.87-30.98-30.98-30.98C655,133.63,668.87,147.5,685.98,147.5z"/>
	<path class="st17" d="M685.98,85.54c-17.11,0-30.98,13.87-30.98,30.98C672.11,116.52,685.98,102.65,685.98,85.54z"/>
	<path class="st17" d="M685.98,54.57c-17.11,0-30.98,13.87-30.98,30.98C672.11,85.54,685.98,71.67,685.98,54.57z"/>
	<path class="st17" d="M685.98,54.57c0-17.11-13.87-30.98-30.98-30.98C655,40.7,668.87,54.57,685.98,54.57z"/>
	<path class="st17" d="M685.98,85.54c17.11,0,30.98-13.87,30.98-30.98C699.85,54.57,685.98,68.43,685.98,85.54z"/>
	<path class="st17" d="M716.96,54.57c0-17.11-13.87-30.98-30.98-30.98C685.98,40.7,699.85,54.57,716.96,54.57z"/>
	<path class="st17" d="M747.93,54.57c-17.11,0-30.98,13.87-30.98,30.98C734.07,85.54,747.93,71.67,747.93,54.57z"/>
	<path class="st17" d="M716.96,23.59c0,17.11,13.87,30.98,30.98,30.98C747.93,37.46,734.07,23.59,716.96,23.59z"/>
	<path class="st17" d="M747.93,85.54c17.11,0,30.98-13.87,30.98-30.98C761.8,54.57,747.93,68.43,747.93,85.54z"/>
	<path class="st17" d="M747.93,23.59c0,17.11,13.87,30.98,30.98,30.98C778.91,37.46,765.04,23.59,747.93,23.59z"/>
	<path class="st17" d="M902.83,271.41h123.91v-61.96v0V147.5H902.83V271.41z M1000.94,163.17c8.55,0,15.49,6.93,15.49,15.49
		c0,8.55-6.93,15.49-15.49,15.49c-8.55,0-15.49-6.93-15.49-15.49C985.45,170.1,992.38,163.17,1000.94,163.17z M965.18,163.17
		c8.55,0,15.49,6.93,15.49,15.49c0,8.55-6.93,15.49-15.49,15.49c-8.55,0-15.49-6.93-15.49-15.49
		C949.69,170.1,956.63,163.17,965.18,163.17z M929.42,162.82c8.55,0,15.49,6.93,15.49,15.49c0,8.55-6.93,15.49-15.49,15.49
		c-8.55,0-15.49-6.93-15.49-15.49C913.93,169.76,920.87,162.82,929.42,162.82z"/>
	<circle class="st17" cx="929.42" cy="178.31" r="15.49"/>
	
		<ellipse transform="matrix(0.9732 -0.2298 0.2298 0.9732 -15.2274 226.5315)" class="st17" cx="965.18" cy="178.66" rx="15.49" ry="15.49"/>
	
		<ellipse transform="matrix(0.9732 -0.2298 0.2298 0.9732 -14.2708 234.7471)" class="st17" cx="1000.94" cy="178.66" rx="15.49" ry="15.49"/>
	<path class="st17" d="M1026.74,209.46v61.96h61.96C1054.48,271.41,1026.74,243.67,1026.74,209.46z"/>
	<path class="st17" d="M1088.7,271.41h61.96v-61.96C1150.65,243.67,1122.91,271.41,1088.7,271.41z"/>
	<path class="st17" d="M1150.65,209.46V147.5h-61.96C1122.91,147.5,1150.65,175.24,1150.65,209.46z"/>
	<path class="st17" d="M1088.7,147.5h-61.96v61.96C1026.74,175.24,1054.48,147.5,1088.7,147.5z"/>
	<path class="st17" d="M1026.74,209.46L1026.74,209.46c0,34.22,27.74,61.96,61.96,61.96h0V147.5h0
		C1054.48,147.5,1026.74,175.24,1026.74,209.46z"/>
	<path class="st17" d="M1088.7,271.41c34.22,0,61.96-27.74,61.96-61.96l0,0v0c0-34.22-27.74-61.96-61.96-61.96l0,0V271.41
		L1088.7,271.41z"/>
	<path class="st17" d="M778.91,271.41V147.5h-30.98h-30.98h-30.98H655v123.91h61.96H778.91z M716.96,162.99
		c17.11,0,30.98,13.87,30.98,30.98c0,17.11-13.87,30.98-30.98,30.98c-17.11,0-30.98-13.87-30.98-30.98
		C685.98,176.86,699.85,162.99,716.96,162.99z M685.98,224.95c17.11,0,30.98,13.87,30.98,30.98c0-17.11,13.87-30.98,30.98-30.98
		c0,17.11-13.87,30.98-30.98,30.98C699.85,255.92,685.98,242.05,685.98,224.95z"/>
	<path class="st17" d="M685.98,224.95c0,17.11,13.87,30.98,30.98,30.98L685.98,224.95z"/>
	<path class="st17" d="M685.98,224.95l30.98,30.98C716.96,238.82,703.09,224.95,685.98,224.95z"/>
	<path class="st17" d="M747.93,224.95l-30.98,30.98C734.07,255.92,747.93,242.05,747.93,224.95z"/>
	<path class="st17" d="M716.96,255.92l30.98-30.98C730.83,224.95,716.96,238.82,716.96,255.92z"/>
	<path class="st17" d="M716.96,224.95c17.11,0,30.98-13.87,30.98-30.98c0-17.11-13.87-30.98-30.98-30.98
		c-17.11,0-30.98,13.87-30.98,30.98C685.98,211.08,699.85,224.95,716.96,224.95z M716.96,178.48c8.55,0,15.49,6.93,15.49,15.49
		c0,8.55-6.93,15.49-15.49,15.49s-15.49-6.93-15.49-15.49C701.47,185.41,708.4,178.48,716.96,178.48z"/>
	<circle class="st17" cx="716.96" cy="193.97" r="15.49"/>
	<path class="st17" d="M1257.6,269.06c-0.98-0.28-1.95-0.58-2.91-0.9c-1.44-0.49-2.86-1.03-4.24-1.61
		c-1.39-0.59-2.75-1.22-4.09-1.91c-5.34-2.74-10.24-6.23-14.54-10.33c4.05,4.55,6.52,10.54,6.52,17.11h36.23
		c-3.74,0-7.41-0.33-10.97-0.97C1261.56,270.08,1259.56,269.62,1257.6,269.06z"/>
	<path class="st17" d="M1228.1,162.99c0,3.45-1.13,6.63-3.03,9.21c0.55-0.73,1.11-1.45,1.69-2.15c0.63-0.76,1.28-1.51,1.95-2.25
		c0.33-0.37,0.67-0.73,1.01-1.09c0.68-0.72,1.38-1.42,2.1-2.1c0.36-0.34,0.72-0.68,1.09-1.01c4.03-3.67,8.55-6.81,13.45-9.32
		c1.34-0.68,2.7-1.32,4.09-1.91c1.39-0.59,2.81-1.13,4.24-1.61c0.96-0.32,1.93-0.63,2.91-0.9c1.96-0.56,3.96-1.02,5.99-1.38
		c3.56-0.64,7.22-0.97,10.97-0.97h-61.96C1221.16,147.5,1228.1,154.43,1228.1,162.99z"/>
	<path class="st17" d="M1200.15,172.19c-1.91-2.57-3.03-5.76-3.03-9.21c0-8.55,6.93-15.49,15.49-15.49h-61.96
		C1170.88,147.5,1188.85,157.2,1200.15,172.19z"/>
	<path class="st17" d="M1150.65,271.41c0-20.23,9.7-38.19,24.69-49.5c-2.57,1.91-5.76,3.03-9.21,3.03
		c-8.55,0-15.49-6.93-15.49-15.49l0,0V271.41z"/>
	<path class="st17" d="M1150.65,209.46c0-8.55,6.93-15.49,15.49-15.49c3.45,0,6.63,1.13,9.21,3.03c-15-11.31-24.69-29.27-24.69-49.5
		V209.46L1150.65,209.46z"/>
	<path class="st17" d="M1181.63,209.46c0,5.01-2.38,9.47-6.07,12.3c10.33-7.72,23.16-12.3,37.05-12.3
		c-13.89,0-26.72-4.57-37.05-12.3C1179.25,199.99,1181.63,204.44,1181.63,209.46z"/>
	<path class="st17" d="M1193.4,254.31c-11.12,10.6-26.17,17.11-42.75,17.11h36.23C1186.88,264.84,1189.35,258.85,1193.4,254.31z"/>
	<path class="st17" d="M1212.61,245.68c6.57,0,12.56,2.47,17.11,6.52c-1.37-1.43-2.67-2.93-3.89-4.49
		c-0.31-0.39-0.61-0.78-0.91-1.18c-0.59-0.8-1.17-1.61-1.73-2.43c-1.67-2.47-3.17-5.07-4.47-7.78c-0.44-0.9-0.85-1.82-1.24-2.74
		c-0.39-0.93-0.76-1.86-1.11-2.81c-0.35-0.95-0.67-1.91-0.97-2.88c-0.3-0.97-0.58-1.95-0.83-2.94c-0.38-1.48-0.71-2.99-0.98-4.52
		c-0.64-3.56-0.97-7.22-0.97-10.97c0,16.57-6.51,31.63-17.11,42.75C1200.05,248.15,1206.04,245.68,1212.61,245.68z"/>
	<path class="st17" d="M1212.61,178.48c-5.01,0-9.47-2.38-12.3-6.07c7.72,10.33,12.3,23.16,12.3,37.05c0-3.74,0.33-7.41,0.97-10.97
		c0.27-1.53,0.6-3.03,0.98-4.52c2.04-7.91,5.59-15.21,10.35-21.57C1222.07,176.1,1217.62,178.48,1212.61,178.48z"/>
	<path class="st17" d="M1212.61,209.46c34.22,0,61.96,27.74,61.96,61.96V147.5C1274.57,181.72,1246.83,209.46,1212.61,209.46z"/>
	<path class="st17" d="M1200.31,172.4c-0.05-0.07-0.11-0.14-0.16-0.21c-11.31-15-29.27-24.69-49.5-24.69l61.96,61.96
		C1212.61,195.56,1208.04,182.74,1200.31,172.4z"/>
	<path class="st17" d="M1175.35,197c0.07,0.05,0.14,0.11,0.21,0.16c10.33,7.72,23.16,12.3,37.05,12.3l-61.96-61.96
		C1150.65,167.73,1160.35,185.69,1175.35,197z"/>
	<path class="st17" d="M1257.6,149.85c-0.98,0.28-1.95,0.58-2.91,0.9c-1.44,0.49-2.86,1.03-4.24,1.61
		c-1.39,0.59-2.75,1.22-4.09,1.91c-4.9,2.51-9.42,5.65-13.45,9.32c-0.37,0.33-0.73,0.67-1.09,1.01c-0.72,0.68-1.42,1.38-2.1,2.1
		c-0.34,0.36-0.68,0.72-1.01,1.09c-0.67,0.73-1.32,1.48-1.95,2.25c-0.58,0.7-1.14,1.42-1.69,2.15c-0.05,0.07-0.11,0.14-0.16,0.21
		c-4.75,6.36-8.31,13.66-10.35,21.57c-0.38,1.48-0.71,2.99-0.98,4.52c-0.64,3.56-0.97,7.22-0.97,10.97l61.96-61.96
		c-3.74,0-7.41,0.33-10.97,0.97C1261.56,148.83,1259.56,149.29,1257.6,149.85z"/>
	<path class="st17" d="M1274.57,147.5l-61.96,61.96C1246.83,209.46,1274.57,181.72,1274.57,147.5z"/>
	<path class="st17" d="M1193.4,254.31c0.66-0.74,1.36-1.44,2.1-2.1c10.6-11.12,17.11-26.17,17.11-42.75l-61.96,61.96
		C1167.23,271.41,1182.28,264.91,1193.4,254.31z"/>
	<path class="st17" d="M1175.35,221.91c-15,11.31-24.69,29.27-24.69,49.5l61.96-61.96c-13.89,0-26.72,4.57-37.05,12.3
		C1175.49,221.81,1175.42,221.86,1175.35,221.91z"/>
	<path class="st17" d="M1213.58,220.42c0.27,1.53,0.6,3.03,0.98,4.52c0.25,0.99,0.53,1.97,0.83,2.94c0.3,0.97,0.63,1.93,0.97,2.88
		c0.35,0.95,0.72,1.89,1.11,2.81c0.39,0.93,0.81,1.84,1.24,2.74c1.31,2.71,2.8,5.31,4.47,7.78c0.56,0.82,1.13,1.63,1.73,2.43
		c0.3,0.4,0.6,0.79,0.91,1.18c1.23,1.56,2.53,3.06,3.89,4.49c0.74,0.66,1.44,1.36,2.1,2.1c4.3,4.1,9.2,7.59,14.54,10.33
		c1.34,0.68,2.7,1.32,4.09,1.91c1.39,0.59,2.81,1.13,4.24,1.61c0.96,0.32,1.93,0.63,2.91,0.9c1.96,0.56,3.96,1.02,5.99,1.38
		c3.56,0.64,7.22,0.97,10.97,0.97l-61.96-61.96C1212.61,213.2,1212.94,216.86,1213.58,220.42z"/>
	<path class="st17" d="M1212.61,209.46l61.96,61.96C1274.57,237.2,1246.83,209.46,1212.61,209.46z"/>
	<path class="st17" d="M1166.14,224.95c3.45,0,6.63-1.13,9.21-3.03c0.07-0.05,0.14-0.11,0.21-0.16c3.69-2.83,6.07-7.28,6.07-12.3
		c0-5.01-2.38-9.47-6.07-12.3c-0.07-0.05-0.14-0.11-0.21-0.16c-2.57-1.91-5.76-3.03-9.21-3.03c-8.55,0-15.49,6.93-15.49,15.49
		C1150.65,218.01,1157.59,224.95,1166.14,224.95z"/>
	<path class="st17" d="M1197.12,162.99c0,3.45,1.13,6.63,3.03,9.21c0.05,0.07,0.11,0.14,0.16,0.21c2.83,3.69,7.28,6.07,12.3,6.07
		s9.47-2.38,12.3-6.07c0.05-0.07,0.11-0.14,0.16-0.21c1.91-2.57,3.03-5.76,3.03-9.21c0-8.55-6.93-15.49-15.49-15.49
		C1204.05,147.5,1197.12,154.43,1197.12,162.99z"/>
	<path class="st17" d="M1195.5,252.2c-0.74,0.66-1.44,1.36-2.1,2.1c-4.05,4.55-6.52,10.54-6.52,17.11h51.46
		c0-6.57-2.47-12.56-6.52-17.11c-0.66-0.74-1.36-1.44-2.1-2.1c-4.55-4.05-10.54-6.52-17.11-6.52
		C1206.04,245.68,1200.05,248.15,1195.5,252.2z"/>
	<path class="st17" d="M902.83,147.5c0,34.22-27.74,61.96-61.96,61.96c-34.21,0-61.96-27.74-61.96-61.96v123.91h123.91V147.5z"/>
	<path class="st17" d="M840.87,209.46V147.5h-61.96C778.91,181.72,806.66,209.46,840.87,209.46z"/>
	<path class="st17" d="M840.87,209.46c34.22,0,61.96-27.74,61.96-61.96h-61.96V209.46z"/>
</g>
</svg>
