<?xml version="1.0" encoding="utf-8"?>
<!-- Generator: Adobe Illustrator 26.0.0, SVG Export Plug-In . SVG Version: 6.00 Build 0)  -->
<svg version="1.1" id="Layer_1" xmlns="http://www.w3.org/2000/svg" xmlns:xlink="http://www.w3.org/1999/xlink" x="0px" y="0px"
	 viewBox="0 0 500 250" style="enable-background:new 0 0 500 250;" xml:space="preserve">
<style type="text/css">
	.st0{fill:#FFFFFF;}
	.st1{clip-path:url(#SVGID_00000056426197995693073120000013031713991669261995_);fill:#FFFFFF;}
	.st2{clip-path:url(#SVGID_00000115495859878742225730000004783530783657225601_);fill:#FFFFFF;}
	.st3{clip-path:url(#SVGID_00000087406794382512900330000005975323294817793414_);fill:#FFFFFF;}
	.st4{clip-path:url(#SVGID_00000147206385080822725740000000446321136415886015_);fill:#FFFFFF;}
	.st5{fill:#12733B;}
	.st6{clip-path:url(#SVGID_00000008135675951497713790000010813946188121043645_);fill:#16A74B;}
	.st7{clip-path:url(#SVGID_00000132781779706947180460000014531531723010055298_);fill:#16A74B;}
	.st8{clip-path:url(#SVGID_00000174573195523421532870000017445056263654371731_);fill:#16A74B;}
	.st9{fill:#16A74B;}
	.st10{clip-path:url(#SVGID_00000090974790048921793780000012353768314817839014_);fill:#16A74B;}
	.st11{clip-path:url(#SVGID_00000183942214044573375050000006286879916414952091_);fill:#16A74B;}
	.st12{clip-path:url(#SVGID_00000148621921321054067570000016344356285305781130_);fill:#16A74B;}
	.st13{clip-path:url(#SVGID_00000043424050672238399550000009074007409054536630_);fill:#16A74B;}
	.st14{clip-path:url(#SVGID_00000109009875181522209230000007538444053836520887_);fill:#16A74B;}
	.st15{fill:#35B34A;}
	.st16{fill:#308B58;}
	.st17{fill:none;stroke:#11A74B;stroke-width:1.4571;stroke-miterlimit:10;}
	.st18{fill:#08743B;}
	.st19{fill:#14A64A;}
	.st20{fill:#30B44A;}
	.st21{fill:#D9D9D8;}
	.st22{clip-path:url(#SVGID_00000129196432772759456280000013176995137112211885_);fill:#FFFFFF;}
	.st23{clip-path:url(#SVGID_00000127729951066466164570000012049261562046281661_);fill:#FFFFFF;}
	.st24{clip-path:url(#SVGID_00000111183604337545502930000010112568864812221583_);fill:#FFFFFF;}
	.st25{clip-path:url(#SVGID_00000125566006347195103720000015099449902529479825_);fill:#FFFFFF;}
</style>
<g>
	<g>
		<path class="st5" d="M152.03,117.88c0-31.88-25.84-57.72-57.72-57.72c-2.96,0-5.87,0.22-8.71,0.65c1.36,3.81,2.2,7.86,2.43,12.08
			c2.05-0.28,4.15-0.43,6.28-0.43c25.09,0,45.42,20.33,45.42,45.42c0,25.08-20.33,45.42-45.42,45.42
			c-14.13,0-26.75-6.45-35.08-16.58c-10.81-5.24-19.11-14.85-22.59-26.55c1.21,30.81,26.56,55.42,57.67,55.42
			c14.92,0,28.52-5.66,38.77-14.96c-9.39,9.91-22.31,16.56-36.98,17.8c-14.12,1.2-27.49-2.79-38.22-10.39
			c10.5,14.87,22.34,28.71,34.68,42.17c1.59,1.73,2.28,1.43,3.69-0.11c8.51-9.29,16.79-18.77,24.55-28.7
			c8.85-11.32,17.28-22.91,24.02-35.59C149.41,137.56,152.03,128.03,152.03,117.88"/>
		<g>
			<defs>
				<path id="SVGID_00000023966932953491170050000018052705201621102728_" d="M64.96,54.04c0.33,10.22-5.58,15.02-10.06,18.64
					c-2.75,2.22-17.41,12.51-17.5,32.87s14.47,31.89,19.95,34.83c0,0-8.56-7.12-8.01-24.37C50.16,90.34,75.1,82,70.6,56.41
					c0,0,5.07,7.03,1.72,22.08c-3.35,15.04-11.77,16.43-14.88,32.38l0.05-0.03c-0.44,2.28-0.67,4.64-0.67,7.05
					c0,20.7,16.78,37.48,37.48,37.48c19.24,0,35.1-14.5,37.23-33.18h-11.19c-2.06,12.53-12.93,22.09-26.04,22.09
					c-14.58,0-26.4-11.82-26.4-26.4c0-6.15,2.81-12.62,5.6-16.08c3.89-5,13.68-16.35,9.36-35.09C77.56,43.7,57.93,38.59,57.93,38.59
					S64.63,43.82,64.96,54.04"/>
			</defs>
			<clipPath id="SVGID_00000080171351135358305380000014402153180076696488_">
				<use xlink:href="#SVGID_00000023966932953491170050000018052705201621102728_"  style="overflow:visible;"/>
			</clipPath>
			
				<rect x="37.33" y="38.59" style="clip-path:url(#SVGID_00000080171351135358305380000014402153180076696488_);fill:#16A74B;" width="94.22" height="116.78"/>
		</g>
		<path class="st5" d="M73.51,101.8c3.89-5,13.68-16.35,9.36-35.09C77.56,43.7,57.93,38.59,57.93,38.59s6.7,5.23,7.03,15.45
			c0.33,10.22-5.58,15.02-10.06,18.64c-2.75,2.22-17.42,12.51-17.5,32.87c-0.08,20.36,14.47,31.89,19.95,34.83
			c0,0-8.56-7.12-8.01-24.37C50.16,90.34,75.1,82,70.6,56.41c0,0,5.07,7.03,1.72,22.08c-3.35,15.05-11.77,16.44-14.88,32.38
			l0.05-0.03c-0.43,2.28-2.11,14.22,3.39,23.76C56.12,119.38,70.72,105.27,73.51,101.8"/>
		<g>
			<defs>
				<path id="SVGID_00000171698256599911422240000007282537757418490811_" d="M66.1,59.25c-1.19,7.46-6.62,11.92-10.88,15.13
					c0,0-13.03,10-15.04,23.03c-2,13.02,0.17,22.71,8.35,33.22c0,0-5.05-15.22,2.09-29.69c5.23-10.6,10.42-16.73,13.39-21.05
					c5.02-7.32,7.32-17.15,5.44-25.93c0,0,8.36,5.71,4.04,27.47c-4.05,20.38,4.1,12.07,5.43,9.31c3.56-7.35,4.61-20.46,0.42-30.36
					c-5.83-13.79-16.8-18.26-16.8-18.26S68.12,48.65,66.1,59.25"/>
			</defs>
			<clipPath id="SVGID_00000152249654209207244750000014956467140966002869_">
				<use xlink:href="#SVGID_00000171698256599911422240000007282537757418490811_"  style="overflow:visible;"/>
			</clipPath>
			
				<rect x="13.35" y="56.41" transform="matrix(0.172 -0.9851 0.9851 0.172 -34.6869 131.4531)" style="clip-path:url(#SVGID_00000152249654209207244750000014956467140966002869_);fill:#16A74B;" width="95.01" height="59.9"/>
		</g>
		<path class="st5" d="M129.77,105.74C124.72,91,110.76,80.4,94.31,80.4c-2.25,0-4.45,0.2-6.59,0.58
			c-0.58,4.44-1.84,8.66-3.67,12.57c3.15-1.33,6.62-2.07,10.26-2.07c10.18,0,18.29,5.82,22.69,14.26"/>
		<g>
			<defs>
				<path id="SVGID_00000044890036541544006610000005493943178396998071_" d="M88.92,82.15c-0.48,3.11-1.29,6.16-2.42,9.1
					c2.52-0.74,5.14-1.11,7.81-1.11c10.37,0,19.8,5.72,24.6,14.93l0.35,0.68h9.08c-1.81-5.09-4.77-9.75-8.73-13.64
					c-6.8-6.67-15.78-10.34-25.31-10.34C92.5,81.75,90.7,81.89,88.92,82.15"/>
			</defs>
			<clipPath id="SVGID_00000026151781918212906940000011685226826271891378_">
				<use xlink:href="#SVGID_00000044890036541544006610000005493943178396998071_"  style="overflow:visible;"/>
			</clipPath>
			
				<rect x="86.5" y="81.75" style="clip-path:url(#SVGID_00000026151781918212906940000011685226826271891378_);fill:#16A74B;" width="41.85" height="23.99"/>
		</g>
		<path class="st9" d="M117.72,130.27H95.68h-0.27v-11.44h32.49v0h3.89c-0.08,4-0.79,7.84-2.03,11.44H117.72z"/>
		<g>
			<defs>
				<path id="SVGID_00000027572438119323090730000018318785646454957460_" d="M96.76,120.18v8.74h23.18l-0.7,1.35h9.09
					c1.15-3.22,1.85-6.61,2.05-10.09h-3.83v0H96.76z"/>
			</defs>
			<clipPath id="SVGID_00000139974836436263596460000013873533754063472513_">
				<use xlink:href="#SVGID_00000027572438119323090730000018318785646454957460_"  style="overflow:visible;"/>
			</clipPath>
			
				<rect x="96.76" y="120.18" style="clip-path:url(#SVGID_00000139974836436263596460000013873533754063472513_);fill:#16A74B;" width="33.62" height="10.09"/>
		</g>
	</g>
	<g>
		<g>
			<path class="st5" d="M219.22,91.25v36.01h-9.65c-0.78-2.67-1.65-4.91-2.59-6.73c-3.99,5.14-9.89,7.72-17.7,7.72
				c-8.28,0-15.1-2.89-20.43-8.68c-5.34-5.79-8-13.62-8-23.51c0-9.6,2.58-17.68,7.74-24.22c5.16-6.54,12.84-9.81,23.04-9.81
				c7.66,0,13.82,1.95,18.5,5.84c4.67,3.89,7.7,9.42,9.08,16.57l-19.11,1.88c-0.94-6.68-3.87-10.02-8.8-10.02
				c-6.46,0-9.69,6.15-9.69,18.45c0,7.44,1.04,12.34,3.11,14.71c2.07,2.37,4.58,3.55,7.53,3.55c2.38,0,4.42-0.72,6.1-2.17
				c1.67-1.44,2.53-3.42,2.56-5.93h-10.64V91.25H219.22z"/>
			<path class="st5" d="M286.81,127.26h-21.86l-9.38-24.57h-6.22v24.57h-19.72V63.01h33.56c7.41,0,13.16,1.73,17.25,5.2
				c4.1,3.47,6.14,8.04,6.14,13.72c0,3.7-0.75,6.97-2.26,9.81c-1.51,2.84-4.55,5.34-9.13,7.51L286.81,127.26z M249.34,88.94h8.43
				c2.48,0,4.47-0.52,5.98-1.55c1.5-1.04,2.26-2.56,2.26-4.57c0-4.11-2.52-6.17-7.58-6.17h-9.09V88.94z"/>
			<path class="st5" d="M344.47,111.91v15.34h-48.34V63.01h48.34v14.83h-28.99v9.32h23.44v14.26h-23.44v10.5H344.47z"/>
			<path class="st5" d="M400.62,111.91v15.34h-48.34V63.01h48.34v14.83h-28.99v9.32h23.44v14.26h-23.44v10.5H400.62z"/>
			<path class="st5" d="M463.36,127.26h-16.05l-17.59-28.39c-2.26-3.64-4.54-8.06-6.83-13.27c1.04,4.14,1.55,7.66,1.55,10.54v31.11
				h-16.01V63.01h18.64l14.97,23.53c2.98,4.68,5.24,8.79,6.78,12.33c-1-5.49-1.51-11.11-1.51-16.85V63.01h16.05V127.26z"/>
		</g>
	</g>
	<g>
		<path class="st5" d="M204.06,197.25v13.17H157.6v-10.67l24.74-32.23h-22.86v-12.92h43.81v10.84l-24.02,31.82H204.06z"/>
		<path class="st5" d="M234.45,211.28c-7.85,0-14.25-2.6-19.2-7.81c-4.95-5.21-7.42-12.17-7.42-20.9c0-8.34,2.36-15.24,7.1-20.68
			c4.73-5.44,11.29-8.16,19.69-8.16c7.77,0,14.1,2.56,19,7.69c4.9,5.12,7.34,11.97,7.34,20.53c0,8.86-2.47,15.96-7.4,21.31
			C248.61,208.6,242.25,211.28,234.45,211.28z M234.36,198.6c2.89,0,4.97-1.26,6.24-3.79c1.27-2.52,1.9-7.14,1.9-13.85
			c0-9.71-2.6-14.56-7.81-14.56c-5.62,0-8.42,5.54-8.42,16.61C226.27,193.4,228.97,198.6,234.36,198.6z"/>
		<path class="st5" d="M315.92,210.42h-13.95l-15.29-24.67c-1.96-3.16-3.94-7.01-5.94-11.53c0.9,3.6,1.35,6.65,1.35,9.16v27.03
			h-13.91v-55.83h16.2l13.01,20.45c2.59,4.06,4.56,7.64,5.89,10.72c-0.87-4.77-1.31-9.65-1.31-14.64v-16.52h13.95V210.42z"/>
		<path class="st5" d="M367.66,197.08v13.33h-42v-55.83h42v12.88h-25.2v8.1h20.37v12.39h-20.37v9.12H367.66z"/>
	</g>
</g>
</svg>
